<svg width="24" height="24" viewBox="0 0 24 24" fill="none" xmlns="http://www.w3.org/2000/svg">
<g clip-path="url(#clip0)">
<path d="M10.4039 0.0128853C11.2619 -0.159115 11.9109 0.775885 11.4499 1.51989C9.07391 5.35789 9.64991 10.4499 12.8939 13.7739C15.3779 16.1689 18.8189 17.1769 22.2339 16.6069C22.4206 16.5756 22.6123 16.598 22.7868 16.6714C22.9613 16.7448 23.1114 16.8663 23.2196 17.0216C23.3277 17.1769 23.3896 17.3598 23.398 17.5489C23.4064 17.738 23.3609 17.9256 23.2669 18.0899C22.8509 18.8169 22.2439 19.5629 21.5069 20.2999C19.2482 22.5514 16.1891 23.8156 12.9999 23.8156C9.81073 23.8156 6.75161 22.5514 4.49291 20.2999C-0.197089 15.6099 -0.197089 7.97589 4.47091 3.30989L4.74291 3.02989C6.29104 1.48788 8.26065 0.438194 10.4039 0.0128853ZM8.68991 2.67089L8.46991 2.77689C7.50984 3.26325 6.64266 3.91448 5.90791 4.70089L5.69791 4.91689C3.91412 6.81787 2.93878 9.33759 2.97778 11.9441C3.01677 14.5507 4.06706 17.0401 5.90691 18.8869C7.79055 20.7634 10.3411 21.8171 12.9999 21.8171C15.6588 21.8171 18.2093 20.7634 20.0929 18.8869L20.2159 18.7599L20.0039 18.7579C16.9481 18.6812 14.0213 17.5102 11.7559 15.4579L11.4829 15.2019C8.19991 11.8169 7.18691 6.95088 8.66491 2.73789L8.68891 2.66989L8.68991 2.67089ZM22.3799 2.90789C23.3199 2.12989 24.6219 3.48789 23.7069 4.40189L23.5909 4.52989C22.6989 5.61389 22.7379 8.01789 23.7069 8.98689L23.7869 9.07388C24.5649 10.0139 23.2069 11.3159 22.2939 10.4009L22.1659 10.2849C21.0819 9.39289 18.6779 9.43188 17.7089 10.4009L17.6219 10.4809C16.6819 11.2589 15.3799 9.90088 16.2949 8.98689L16.4109 8.85888C17.3029 7.77488 17.2639 5.37089 16.2949 4.40189L16.2149 4.31489C15.4369 3.37489 16.7949 2.07289 17.7089 2.98789L17.8369 3.10389C18.9209 3.99589 21.3249 3.95689 22.2939 2.98789L22.3799 2.90789ZM21.0319 5.66089L20.8899 5.68389C20.2993 5.76451 19.7005 5.76451 19.1099 5.68389L18.9669 5.66089L18.9899 5.80489C19.0705 6.39548 19.0705 6.99429 18.9899 7.58489L18.9669 7.72789L19.1099 7.70589C19.7005 7.62526 20.2993 7.62526 20.8899 7.70589L21.0319 7.72789L20.9999 7.58289C20.9193 6.99229 20.9193 6.39348 20.9999 5.80289L21.0219 5.65889L21.0319 5.66089Z" fill="#89238A"/>
</g>
<defs>
<clipPath id="clip0">
<rect width="24" height="24" fill="white"/>
</clipPath>
</defs>
</svg>
