<svg width="44" height="37" viewBox="0 0 44 37" fill="none" xmlns="http://www.w3.org/2000/svg">
<path fill-rule="evenodd" clip-rule="evenodd" d="M14.8814 0.8906C15.2523 0.334202 15.8767 0 16.5455 0H27.4545C28.1233 0 28.7477 0.334202 29.1186 0.8906L32.1613 5.45455H38.3636C39.8585 5.45455 41.2921 6.04837 42.3491 7.1054C43.4062 8.16242 44 9.59605 44 11.0909V31.0909C44 32.5858 43.4062 34.0194 42.3491 35.0764C41.2921 36.1334 39.8585 36.7273 38.3636 36.7273H5.63636C4.14151 36.7273 2.70788 36.1334 1.65085 35.0764C0.59383 34.0194 0 32.5858 0 31.0909V11.0909C0 9.59605 0.59383 8.16242 1.65085 7.1054C2.70788 6.04837 4.14151 5.45455 5.63636 5.45455H11.8387L14.8814 0.8906ZM17.6158 4L14.5732 8.56395C14.2023 9.12034 13.5778 9.45455 12.9091 9.45455H5.63636C5.20237 9.45455 4.78616 9.62695 4.47928 9.93382C4.1724 10.2407 4 10.6569 4 11.0909V31.0909C4 31.5249 4.1724 31.9411 4.47928 32.248C4.78616 32.5549 5.20237 32.7273 5.63636 32.7273H38.3636C38.7976 32.7273 39.2138 32.5549 39.5207 32.248C39.8276 31.9411 40 31.5249 40 31.0909V11.0909C40 10.6569 39.8276 10.2407 39.5207 9.93382C39.2138 9.62695 38.7976 9.45455 38.3636 9.45455H31.0909C30.4222 9.45455 29.7977 9.12034 29.4268 8.56395L26.3842 4H17.6158Z" fill="#CDCDCE"/>
<path fill-rule="evenodd" clip-rule="evenodd" d="M21.9993 14.9102C19.0872 14.9102 16.7266 17.2708 16.7266 20.1829C16.7266 23.0949 19.0872 25.4556 21.9993 25.4556C24.9113 25.4556 27.272 23.0949 27.272 20.1829C27.272 17.2708 24.9113 14.9102 21.9993 14.9102ZM12.7266 20.1829C12.7266 15.0617 16.8781 10.9102 21.9993 10.9102C27.1205 10.9102 31.272 15.0617 31.272 20.1829C31.272 25.3041 27.1205 29.4556 21.9993 29.4556C16.8781 29.4556 12.7266 25.3041 12.7266 20.1829Z" fill="#CDCDCE"/>
</svg>
