<svg width="20" height="20" viewBox="0 0 20 20" fill="none" xmlns="http://www.w3.org/2000/svg">
<path d="M14.625 15.3661V11.875C14.625 11.5298 14.3452 11.25 14 11.25C13.6548 11.25 13.375 11.5298 13.375 11.875V15.3661L12.5669 14.5581C12.3229 14.314 11.9271 14.314 11.6831 14.5581C11.439 14.8021 11.439 15.1979 11.6831 15.4419L13.5581 17.3169C13.618 17.3769 13.687 17.4221 13.7608 17.4526C13.8345 17.4831 13.9153 17.5 14 17.5C14.0847 17.5 14.1655 17.4831 14.2392 17.4526C14.313 17.4221 14.382 17.3769 14.4419 17.3169L16.3169 15.4419C16.561 15.1979 16.561 14.8021 16.3169 14.5581C16.0729 14.314 15.6771 14.314 15.4331 14.5581L14.625 15.3661Z" fill="#89238A"/>
<path fill-rule="evenodd" clip-rule="evenodd" d="M0.875 0.625C0.875 0.279822 1.15482 0 1.5 0H9C9.16576 0 9.32473 0.065848 9.44194 0.183058L14.4419 5.18306L14.4486 5.18983C14.5578 5.30236 14.625 5.45583 14.625 5.625V8.78433C17.4375 9.09523 19.625 11.4797 19.625 14.375C19.625 17.4816 17.1066 20 14 20C12.3341 20 10.8373 19.2758 9.8073 18.125H1.5C1.15482 18.125 0.875 17.8452 0.875 17.5V0.625ZM8.9597 16.875C8.58544 16.1219 8.375 15.273 8.375 14.375C8.375 11.4797 10.5625 9.09523 13.375 8.78433V6.25H9C8.65482 6.25 8.375 5.97018 8.375 5.625V1.25H2.125V16.875H8.9597ZM14 10C11.5838 10 9.625 11.9588 9.625 14.375C9.625 16.7912 11.5838 18.75 14 18.75C16.4162 18.75 18.375 16.7912 18.375 14.375C18.375 11.9588 16.4162 10 14 10ZM9.625 5V2.13388L12.4911 5H9.625Z" fill="#89238A"/>
</svg>
