<svg width="22" height="22" viewBox="0 0 22 22" fill="none" xmlns="http://www.w3.org/2000/svg">
<path fill-rule="evenodd" clip-rule="evenodd" d="M10.6115 1C5.30323 1 1 5.20819 1 10.3993C1 15.5903 5.30323 19.7985 10.6115 19.7985C12.8819 19.7985 14.9684 19.0287 16.613 17.7415L19.7371 20.7886L19.8202 20.8586C20.1102 21.0685 20.5214 21.0446 20.7839 20.7873C21.0726 20.5043 21.072 20.0459 20.7825 19.7636L17.6952 16.7523C19.2649 15.0794 20.2231 12.8487 20.2231 10.3993C20.2231 5.20819 15.9198 1 10.6115 1ZM10.6115 2.44774C15.1022 2.44774 18.7426 6.00776 18.7426 10.3993C18.7426 14.7908 15.1022 18.3508 10.6115 18.3508C6.12086 18.3508 2.48044 14.7908 2.48044 10.3993C2.48044 6.00776 6.12086 2.44774 10.6115 2.44774Z" fill="#8A8C92"/>
<path d="M16.613 17.7415L16.9621 17.3836L16.6491 17.0783L16.3048 17.3478L16.613 17.7415ZM19.7371 20.7886L19.3879 21.1466L19.401 21.1593L19.415 21.1711L19.7371 20.7886ZM19.8202 20.8586L19.4981 21.2411L19.5122 21.2529L19.527 21.2637L19.8202 20.8586ZM20.7839 20.7873L21.1339 21.1443V21.1443L20.7839 20.7873ZM20.7825 19.7636L20.4334 20.1215L20.4334 20.1215L20.7825 19.7636ZM17.6952 16.7523L17.3306 16.4102L16.995 16.7678L17.3461 17.1102L17.6952 16.7523ZM1.5 10.3993C1.5 5.4948 5.56879 1.5 10.6115 1.5V0.5C5.03768 0.5 0.5 4.92158 0.5 10.3993H1.5ZM10.6115 19.2985C5.56879 19.2985 1.5 15.3037 1.5 10.3993H0.5C0.5 15.8769 5.03768 20.2985 10.6115 20.2985V19.2985ZM16.3048 17.3478C14.7458 18.568 12.7672 19.2985 10.6115 19.2985V20.2985C12.9965 20.2985 15.1909 19.4895 16.9212 18.1353L16.3048 17.3478ZM20.0862 20.4307L16.9621 17.3836L16.2639 18.0994L19.3879 21.1466L20.0862 20.4307ZM20.1422 20.4762L20.0591 20.4062L19.415 21.1711L19.4981 21.2411L20.1422 20.4762ZM20.4338 20.4303C20.3488 20.5137 20.2098 20.5234 20.1133 20.4536L19.527 21.2637C20.0107 21.6137 20.6941 21.5756 21.1339 21.1443L20.4338 20.4303ZM20.4334 20.1215C20.5221 20.208 20.5222 20.3436 20.4338 20.4303L21.1339 21.1443C21.6229 20.6649 21.6219 19.8838 21.1316 19.4057L20.4334 20.1215ZM17.3461 17.1102L20.4334 20.1215L21.1316 19.4057L18.0443 16.3944L17.3461 17.1102ZM19.7231 10.3993C19.7231 12.7153 18.8178 14.8252 17.3306 16.4102L18.0598 17.0944C19.7121 15.3336 20.7231 12.9822 20.7231 10.3993H19.7231ZM10.6115 1.5C15.6543 1.5 19.7231 5.4948 19.7231 10.3993H20.7231C20.7231 4.92158 16.1854 0.5 10.6115 0.5V1.5ZM19.2426 10.3993C19.2426 5.72115 15.3678 1.94774 10.6115 1.94774V2.94774C14.8367 2.94774 18.2426 6.29437 18.2426 10.3993H19.2426ZM10.6115 18.8508C15.3678 18.8508 19.2426 15.0774 19.2426 10.3993H18.2426C18.2426 14.5042 14.8367 17.8508 10.6115 17.8508V18.8508ZM1.98044 10.3993C1.98044 15.0774 5.8553 18.8508 10.6115 18.8508V17.8508C6.38641 17.8508 2.98044 14.5042 2.98044 10.3993H1.98044ZM10.6115 1.94774C5.8553 1.94774 1.98044 5.72115 1.98044 10.3993H2.98044C2.98044 6.29437 6.38641 2.94774 10.6115 2.94774V1.94774Z" fill="#8A8C92"/>
</svg>
