<svg width="24" height="24" viewBox="0 0 24 24" fill="none" xmlns="http://www.w3.org/2000/svg">
<path d="M13.9273 13.9273C13.6776 14.1953 13.3765 14.4102 13.042 14.5592C12.7074 14.7083 12.3463 14.7885 11.9801 14.7949C11.6139 14.8014 11.2501 14.734 10.9106 14.5969C10.571 14.4597 10.2625 14.2555 10.0035 13.9965C9.74452 13.7376 9.54036 13.4291 9.40319 13.0895C9.26602 12.7499 9.19866 12.3862 9.20512 12.02C9.21158 11.6538 9.29174 11.2926 9.4408 10.9581C9.58986 10.6235 9.80478 10.3225 10.0727 10.0728M17.4 17.4C15.846 18.5846 13.9537 19.2408 12 19.2728C5.63636 19.2728 2 12 2 12C3.13081 9.89268 4.69921 8.05151 6.6 6.60005L17.4 17.4ZM10.0909 4.9455C10.7167 4.79903 11.3573 4.72581 12 4.72732C18.3636 4.72732 22 12 22 12C21.4482 13.0324 20.7901 14.0043 20.0364 14.9L10.0909 4.9455Z" stroke="#8A8C92" stroke-width="2" stroke-linecap="round" stroke-linejoin="round"/>
<path d="M2 2L22 22" stroke="#8A8C92" stroke-width="2" stroke-linecap="round" stroke-linejoin="round"/>
</svg>
