<svg width="20" height="20" viewBox="0 0 20 20" fill="none" xmlns="http://www.w3.org/2000/svg">
<path fill-rule="evenodd" clip-rule="evenodd" d="M15.9566 2.4987C15.7538 2.4987 15.553 2.53864 15.3657 2.61623C15.1784 2.69383 15.0081 2.80757 14.8648 2.95095L3.67389 14.1418L2.85502 17.1444L5.85756 16.3255L17.0484 5.13462C17.1918 4.99123 17.3055 4.82101 17.3831 4.63368C17.4607 4.44634 17.5007 4.24556 17.5007 4.04278C17.5007 3.84001 17.4607 3.63922 17.3831 3.45189C17.3055 3.26455 17.1918 3.09433 17.0484 2.95095C16.905 2.80757 16.7348 2.69383 16.5475 2.61623C16.3601 2.53864 16.1594 2.4987 15.9566 2.4987ZM14.7279 1.07643C15.1174 0.91508 15.5349 0.832031 15.9566 0.832031C16.3782 0.832031 16.7957 0.91508 17.1853 1.07643C17.5748 1.23779 17.9288 1.47429 18.2269 1.77244C18.5251 2.07058 18.7616 2.42453 18.9229 2.81408C19.0843 3.20363 19.1673 3.62114 19.1673 4.04278C19.1673 4.46442 19.0843 4.88194 18.9229 5.27148C18.7616 5.66103 18.5251 6.01498 18.2269 6.31313L6.87958 17.6605C6.77704 17.763 6.64951 17.837 6.50959 17.8752L1.8866 19.136C1.59809 19.2147 1.28954 19.1327 1.07808 18.9213C0.866623 18.7098 0.784683 18.4013 0.863367 18.1128L2.12418 13.4898C2.16234 13.3499 2.23635 13.2223 2.3389 13.1198L13.6862 1.77244C13.9844 1.47429 14.3383 1.23779 14.7279 1.07643Z" fill="#89238A"/>
</svg>
