<svg width="24" height="24" viewBox="0 0 24 24" fill="none" xmlns="http://www.w3.org/2000/svg">
<path d="M3.37109 5.69922H5.37109H21.3711" stroke="#89238A" stroke-width="2" stroke-linecap="round" stroke-linejoin="round"/>
<path d="M8.37109 5.69922V3.69922C8.37109 3.16879 8.58181 2.66008 8.95688 2.28501C9.33195 1.90993 9.84066 1.69922 10.3711 1.69922H14.3711C14.9015 1.69922 15.4102 1.90993 15.7853 2.28501C16.1604 2.66008 16.3711 3.16879 16.3711 3.69922V5.69922M19.3711 5.69922V19.6992C19.3711 20.2297 19.1604 20.7384 18.7853 21.1134C18.4102 21.4885 17.9015 21.6992 17.3711 21.6992H7.37109C6.84066 21.6992 6.33195 21.4885 5.95688 21.1134C5.58181 20.7384 5.37109 20.2297 5.37109 19.6992V5.69922H19.3711Z" stroke="#89238A" stroke-width="2" stroke-linecap="round" stroke-linejoin="round"/>
<path d="M10.3711 10.6992V16.6992" stroke="#89238A" stroke-width="2" stroke-linecap="round" stroke-linejoin="round"/>
<path d="M14.3711 10.6992V16.6992" stroke="#89238A" stroke-width="2" stroke-linecap="round" stroke-linejoin="round"/>
</svg>
