<svg width="24" height="24" viewBox="0 0 24 24" fill="none" xmlns="http://www.w3.org/2000/svg">
<path d="M17.25 18.4393V14.25C17.25 13.8358 16.9142 13.5 16.5 13.5C16.0858 13.5 15.75 13.8358 15.75 14.25V18.4393L14.7803 17.4697C14.4874 17.1768 14.0126 17.1768 13.7197 17.4697C13.4268 17.7626 13.4268 18.2374 13.7197 18.5303L15.9697 20.7803C16.0416 20.8522 16.1245 20.9065 16.2129 20.9431C16.3013 20.9798 16.3983 21 16.5 21C16.6017 21 16.6987 20.9798 16.7871 20.9431C16.8755 20.9065 16.9584 20.8522 17.0303 20.7803L19.2803 18.5303C19.5732 18.2374 19.5732 17.7626 19.2803 17.4697C18.9874 17.1768 18.5126 17.1768 18.2197 17.4697L17.25 18.4393Z" fill="#FE6E4B"/>
<path fill-rule="evenodd" clip-rule="evenodd" d="M0.75 0.75C0.75 0.335786 1.08579 0 1.5 0H10.5C10.6989 0 10.8897 0.0790176 11.0303 0.21967L17.0303 6.21967L17.0383 6.2278C17.1693 6.36283 17.25 6.547 17.25 6.75V10.5412C20.625 10.9143 23.25 13.7756 23.25 17.25C23.25 20.9779 20.2279 24 16.5 24C14.5009 24 12.7047 23.1309 11.4688 21.75H1.5C1.08579 21.75 0.75 21.4142 0.75 21V0.75ZM10.4516 20.25C10.0025 19.3463 9.75 18.3276 9.75 17.25C9.75 13.7756 12.375 10.9143 15.75 10.5412V7.5H10.5C10.0858 7.5 9.75 7.16421 9.75 6.75V1.5H2.25V20.25H10.4516ZM16.5 12C13.6005 12 11.25 14.3505 11.25 17.25C11.25 20.1495 13.6005 22.5 16.5 22.5C19.3995 22.5 21.75 20.1495 21.75 17.25C21.75 14.3505 19.3995 12 16.5 12ZM11.25 6V2.56066L14.6893 6H11.25Z" fill="#FE6E4B"/>
</svg>
