<svg width="53" height="35" viewBox="0 0 53 35" fill="none" xmlns="http://www.w3.org/2000/svg">
<g filter="url(#filter0_dd)">
<mask id="path-1-inside-1" fill="white">
<path fill-rule="evenodd" clip-rule="evenodd" d="M29 17.5034L29 19.7143C29 22.3442 23.6274 24 17 24C10.3726 24 5 22.3442 5 19.7143V17.5V17.3333C5.00345 17.3256 5.00694 17.3178 5.01049 17.3101C5.27584 14.9129 10.5422 13 17 13C23.216 13 28.3281 14.7723 28.9389 17.0429C28.9608 17.0863 28.9812 17.1302 29 17.1746V17.4966C29 17.4977 29 17.4989 29 17.5C29 17.5011 29 17.5023 29 17.5034Z"/>
</mask>
<path fill-rule="evenodd" clip-rule="evenodd" d="M29 17.5034L29 19.7143C29 22.3442 23.6274 24 17 24C10.3726 24 5 22.3442 5 19.7143V17.5V17.3333C5.00345 17.3256 5.00694 17.3178 5.01049 17.3101C5.27584 14.9129 10.5422 13 17 13C23.216 13 28.3281 14.7723 28.9389 17.0429C28.9608 17.0863 28.9812 17.1302 29 17.1746V17.4966C29 17.4977 29 17.4989 29 17.5C29 17.5011 29 17.5023 29 17.5034Z" fill="url(#paint0_linear)"/>
<path d="M29 17.5034H28.9H29ZM29 19.7143H29.1H29ZM5 17.3333L4.90863 17.2927L4.9 17.3121V17.3333H5ZM5.01049 17.3101L5.10137 17.3518L5.10811 17.3372L5.10988 17.3211L5.01049 17.3101ZM28.9389 17.0429L28.8423 17.0689L28.845 17.0789L28.8497 17.0881L28.9389 17.0429ZM29 17.1746H29.1V17.1543L29.0921 17.1357L29 17.1746ZM28.9 17.5034L28.9 19.7143H29.1L29.1 17.5034H28.9ZM28.9 19.7143C28.9 20.3339 28.5845 20.9051 27.9916 21.4178C27.3977 21.9313 26.5322 22.3796 25.4529 22.7487C23.2951 23.4867 20.3069 23.9 17 23.9V24.1C20.3205 24.1 23.3323 23.6854 25.5176 22.938C26.6099 22.5644 27.5018 22.1057 28.1224 21.5691C28.7439 21.0317 29.1 20.4096 29.1 19.7143H28.9ZM17 23.9C13.6931 23.9 10.7049 23.4867 8.54708 22.7487C7.46781 22.3796 6.60231 21.9313 6.00843 21.4178C5.41546 20.9051 5.1 20.3339 5.1 19.7143H4.9C4.9 20.4096 5.25611 21.0317 5.87761 21.5691C6.4982 22.1057 7.39005 22.5644 8.48236 22.938C10.6677 23.6854 13.6795 24.1 17 24.1V23.9ZM5.1 19.7143V17.5H4.9V19.7143H5.1ZM5.1 17.5V17.3333H4.9V17.5H5.1ZM5.09137 17.374C5.09466 17.3666 5.09799 17.3592 5.10137 17.3518L4.91961 17.2684C4.9159 17.2765 4.91224 17.2846 4.90863 17.2927L5.09137 17.374ZM5.10988 17.3211C5.17225 16.7577 5.53007 16.2102 6.15095 15.7028C6.77118 15.1959 7.64489 14.7368 8.71701 14.3502C10.8607 13.5771 13.7798 13.1 17 13.1V12.9C13.7624 12.9 10.8194 13.3794 8.64916 14.162C7.56429 14.5533 6.66804 15.0219 6.02439 15.5479C5.38139 16.0734 4.9814 16.664 4.9111 17.2991L5.10988 17.3211ZM17 13.1C20.0995 13.1 22.9202 13.542 25.0391 14.2646C26.0987 14.626 26.9792 15.0564 27.6308 15.534C28.2833 16.0123 28.6978 16.5317 28.8423 17.0689L29.0354 17.017C28.8746 16.4189 28.421 15.8652 27.749 15.3727C27.076 14.8794 26.1755 14.4409 25.1037 14.0753C22.9598 13.3442 20.1165 12.9 17 12.9V13.1ZM28.8497 17.0881C28.8706 17.1295 28.89 17.1713 28.9079 17.2135L29.0921 17.1357C29.0724 17.0891 29.0511 17.0431 29.0281 16.9978L28.8497 17.0881ZM28.9 17.1746V17.4966H29.1V17.1746H28.9ZM28.9 17.4966C28.9 17.4973 28.9 17.4979 28.9 17.4985C28.9 17.4991 28.9 17.4995 28.9 17.5H29.1C29.1 17.4993 29.1 17.4987 29.1 17.4981C29.1 17.4976 29.1 17.4971 29.1 17.4966H28.9ZM28.9 17.5C28.9 17.5005 28.9 17.5009 28.9 17.5015C28.9 17.5021 28.9 17.5027 28.9 17.5034H29.1C29.1 17.5029 29.1 17.5024 29.1 17.5019C29.1 17.5013 29.1 17.5007 29.1 17.5H28.9Z" fill="url(#paint1_linear)" mask="url(#path-1-inside-1)"/>
</g>
<g filter="url(#filter1_dd)">
<ellipse cx="17" cy="17.5" rx="12" ry="4.5" fill="url(#paint2_linear)"/>
<path d="M28.95 17.5C28.95 18.1019 28.6249 18.6813 28.0238 19.2142C27.4228 19.7471 26.5502 20.2292 25.4677 20.6352C23.3031 21.4469 20.3093 21.95 17 21.95C13.6907 21.95 10.6969 21.4469 8.53227 20.6352C7.44977 20.2292 6.57722 19.7471 5.97619 19.2142C5.3751 18.6813 5.05 18.1019 5.05 17.5C5.05 16.8981 5.3751 16.3187 5.97619 15.7858C6.57722 15.2529 7.44977 14.7708 8.53227 14.3648C10.6969 13.5531 13.6907 13.05 17 13.05C20.3093 13.05 23.3031 13.5531 25.4677 14.3648C26.5502 14.7708 27.4228 15.2529 28.0238 15.7858C28.6249 16.3187 28.95 16.8981 28.95 17.5Z" stroke="url(#paint3_linear)" stroke-width="0.1"/>
</g>
<g filter="url(#filter2_dd)">
<mask id="path-5-inside-2" fill="white">
<path fill-rule="evenodd" clip-rule="evenodd" d="M38 21.5034L38 23.7142C38 26.3442 32.6274 27.9999 26 27.9999C19.3726 27.9999 14 26.3442 14 23.7142V21.5V21.3333C14.0034 21.3256 14.0069 21.3178 14.0105 21.3101C14.2758 18.9129 19.5422 17 26 17C32.216 17 37.3281 18.7723 37.9389 21.0429C37.9608 21.0863 37.9812 21.1302 38 21.1746V21.4966C38 21.4977 38 21.4988 38 21.5C38 21.5011 38 21.5022 38 21.5034Z"/>
</mask>
<path fill-rule="evenodd" clip-rule="evenodd" d="M38 21.5034L38 23.7142C38 26.3442 32.6274 27.9999 26 27.9999C19.3726 27.9999 14 26.3442 14 23.7142V21.5V21.3333C14.0034 21.3256 14.0069 21.3178 14.0105 21.3101C14.2758 18.9129 19.5422 17 26 17C32.216 17 37.3281 18.7723 37.9389 21.0429C37.9608 21.0863 37.9812 21.1302 38 21.1746V21.4966C38 21.4977 38 21.4988 38 21.5C38 21.5011 38 21.5022 38 21.5034Z" fill="url(#paint4_linear)"/>
<path d="M38 21.5034H37.9H38ZM38 23.7142H38.1H38ZM14 21.3333L13.9086 21.2927L13.9 21.3121V21.3333H14ZM14.0105 21.3101L14.1014 21.3518L14.1081 21.3371L14.1099 21.3211L14.0105 21.3101ZM37.9389 21.0429L37.8423 21.0689L37.845 21.0789L37.8497 21.0881L37.9389 21.0429ZM38 21.1746H38.1V21.1543L38.0921 21.1356L38 21.1746ZM37.9 21.5034L37.9 23.7142H38.1L38.1 21.5034H37.9ZM37.9 23.7142C37.9 24.3339 37.5845 24.905 36.9916 25.4177C36.3977 25.9312 35.5322 26.3796 34.4529 26.7487C32.2951 27.4867 29.3069 27.8999 26 27.8999V28.0999C29.3205 28.0999 32.3323 27.6853 34.5176 26.9379C35.6099 26.5644 36.5018 26.1056 37.1224 25.569C37.7439 25.0316 38.1 24.4096 38.1 23.7142H37.9ZM26 27.8999C22.6931 27.8999 19.7049 27.4867 17.5471 26.7487C16.4678 26.3796 15.6023 25.9312 15.0084 25.4177C14.4155 24.905 14.1 24.3339 14.1 23.7142H13.9C13.9 24.4096 14.2561 25.0316 14.8776 25.569C15.4982 26.1056 16.3901 26.5644 17.4824 26.9379C19.6677 27.6853 22.6795 28.0999 26 28.0999V27.8999ZM14.1 23.7142V21.5H13.9V23.7142H14.1ZM14.1 21.5V21.3333H13.9V21.5H14.1ZM14.0914 21.3739C14.0947 21.3666 14.098 21.3592 14.1014 21.3518L13.9196 21.2684C13.9159 21.2765 13.9122 21.2846 13.9086 21.2927L14.0914 21.3739ZM14.1099 21.3211C14.1723 20.7576 14.5301 20.2102 15.1509 19.7028C15.7712 19.1959 16.6449 18.7368 17.717 18.3502C19.8607 17.5771 22.7798 17.1 26 17.1V16.9C22.7624 16.9 19.8194 17.3794 17.6491 18.162C16.5643 18.5533 15.668 19.0219 15.0244 19.5479C14.3814 20.0734 13.9814 20.664 13.9111 21.2991L14.1099 21.3211ZM26 17.1C29.0995 17.1 31.9203 17.542 34.0391 18.2646C35.0987 18.626 35.9792 19.0564 36.6308 19.534C37.2833 20.0123 37.6978 20.5317 37.8423 21.0689L38.0354 21.017C37.8746 20.4189 37.421 19.8652 36.749 19.3727C36.076 18.8793 35.1755 18.4409 34.1037 18.0753C31.9598 17.3442 29.1165 16.9 26 16.9V17.1ZM37.8497 21.0881C37.8706 21.1295 37.89 21.1713 37.9079 21.2135L38.0921 21.1356C38.0724 21.0891 38.0511 21.0431 38.0281 20.9977L37.8497 21.0881ZM37.9 21.1746V21.4966H38.1V21.1746H37.9ZM37.9 21.4966C37.9 21.4972 37.9 21.4979 37.9 21.4984C37.9 21.499 37.9 21.4995 37.9 21.5H38.1C38.1 21.4993 38.1 21.4987 38.1 21.4981C38.1 21.4975 38.1 21.497 38.1 21.4966H37.9ZM37.9 21.5C37.9 21.5004 37.9 21.5009 37.9 21.5015C37.9 21.502 37.9 21.5027 37.9 21.5034H38.1C38.1 21.5029 38.1 21.5024 38.1 21.5018C38.1 21.5013 38.1 21.5006 38.1 21.5H37.9Z" fill="url(#paint5_linear)" mask="url(#path-5-inside-2)"/>
</g>
<g filter="url(#filter3_dd)">
<mask id="path-7-inside-3" fill="white">
<path fill-rule="evenodd" clip-rule="evenodd" d="M30 13.5034L30 15.7143C30 18.3443 24.6274 20.0001 18 20.0001C11.3726 20.0001 6 18.3443 6 15.7143V13.5V13.3334C6.00345 13.3256 6.00694 13.3179 6.01049 13.3101C6.27585 10.9129 11.5422 9 18 9C24.216 9 29.3281 10.7723 29.9389 13.043C29.9608 13.0863 29.9812 13.1302 30 13.1746V13.4966C30 13.4978 30 13.4989 30 13.5C30 13.5012 30 13.5023 30 13.5034Z"/>
</mask>
<path fill-rule="evenodd" clip-rule="evenodd" d="M30 13.5034L30 15.7143C30 18.3443 24.6274 20.0001 18 20.0001C11.3726 20.0001 6 18.3443 6 15.7143V13.5V13.3334C6.00345 13.3256 6.00694 13.3179 6.01049 13.3101C6.27585 10.9129 11.5422 9 18 9C24.216 9 29.3281 10.7723 29.9389 13.043C29.9608 13.0863 29.9812 13.1302 30 13.1746V13.4966C30 13.4978 30 13.4989 30 13.5C30 13.5012 30 13.5023 30 13.5034Z" fill="url(#paint6_linear)"/>
<path d="M30 13.5034H29.9H30ZM30 15.7143H30.1H30ZM6 13.3334L5.90863 13.2927L5.9 13.3121V13.3334H6ZM6.01049 13.3101L6.10137 13.3519L6.10811 13.3372L6.10988 13.3211L6.01049 13.3101ZM29.9389 13.043L29.8423 13.0689L29.845 13.0789L29.8497 13.0882L29.9389 13.043ZM30 13.1746H30.1V13.1544L30.0921 13.1357L30 13.1746ZM29.9 13.5034L29.9 15.7143H30.1L30.1 13.5034H29.9ZM29.9 15.7143C29.9 16.3339 29.5845 16.9051 28.9916 17.4178C28.3977 17.9314 27.5322 18.3797 26.4529 18.7488C24.2951 19.4868 21.3069 19.9001 18 19.9001V20.1001C21.3205 20.1001 24.3323 19.6854 26.5176 18.938C27.6099 18.5645 28.5018 18.1057 29.1224 17.5691C29.7439 17.0317 30.1 16.4097 30.1 15.7143H29.9ZM18 19.9001C14.6931 19.9001 11.7049 19.4868 9.54708 18.7488C8.46781 18.3797 7.60231 17.9314 7.00843 17.4178C6.41546 16.9051 6.1 16.3339 6.1 15.7143H5.9C5.9 16.4097 6.25611 17.0317 6.87761 17.5691C7.4982 18.1057 8.39005 18.5645 9.48236 18.938C11.6677 19.6854 14.6795 20.1001 18 20.1001V19.9001ZM6.1 15.7143V13.5H5.9V15.7143H6.1ZM6.1 13.5V13.3334H5.9V13.5H6.1ZM6.09137 13.374C6.09466 13.3666 6.09799 13.3592 6.10137 13.3519L5.91961 13.2684C5.9159 13.2765 5.91224 13.2846 5.90863 13.2927L6.09137 13.374ZM6.10988 13.3211C6.17226 12.7577 6.53007 12.2102 7.15096 11.7028C7.77118 11.1959 8.6449 10.7368 9.71701 10.3502C11.8607 9.57709 14.7798 9.1 18 9.1V8.9C14.7624 8.9 11.8194 9.37937 9.64916 10.162C8.5643 10.5533 7.66805 11.0219 7.0244 11.5479C6.3814 12.0734 5.98141 12.664 5.9111 13.2991L6.10988 13.3211ZM18 9.1C21.0995 9.1 23.9202 9.542 26.0391 10.2646C27.0987 10.626 27.9792 11.0564 28.6307 11.534C29.2833 12.0123 29.6978 12.5317 29.8423 13.0689L30.0354 13.017C29.8745 12.4189 29.421 11.8652 28.749 11.3727C28.076 10.8794 27.1754 10.4409 26.1037 10.0753C23.9598 9.34417 21.1165 8.9 18 8.9V9.1ZM29.8497 13.0882C29.8706 13.1295 29.89 13.1713 29.9079 13.2136L30.0921 13.1357C30.0724 13.0891 30.0511 13.0432 30.0281 12.9978L29.8497 13.0882ZM29.9 13.1746V13.4966H30.1V13.1746H29.9ZM29.9 13.4966C29.9 13.4973 29.9 13.4979 29.9 13.4985C29.9 13.4991 29.9 13.4996 29.9 13.5H30.1C30.1 13.4994 30.1 13.4987 30.1 13.4982C30.1 13.4976 30.1 13.4971 30.1 13.4966H29.9ZM29.9 13.5C29.9 13.5005 29.9 13.501 29.9 13.5015C29.9 13.5021 29.9 13.5027 29.9 13.5034H30.1C30.1 13.5029 30.1 13.5025 30.1 13.5019C30.1 13.5013 30.1 13.5007 30.1 13.5H29.9Z" fill="url(#paint7_linear)" mask="url(#path-7-inside-3)"/>
</g>
<g filter="url(#filter4_dd)">
<ellipse cx="18" cy="13.5" rx="12" ry="4.50003" fill="url(#paint8_linear)"/>
<path d="M29.95 13.5C29.95 14.1019 29.6249 14.6813 29.0238 15.2142C28.4228 15.7471 27.5502 16.2293 26.4677 16.6352C24.3031 17.447 21.3093 17.9501 18 17.9501C14.6907 17.9501 11.6969 17.447 9.53227 16.6352C8.44977 16.2293 7.57722 15.7471 6.97619 15.2142C6.3751 14.6813 6.05 14.1019 6.05 13.5C6.05 12.8981 6.3751 12.3188 6.97619 11.7858C7.57722 11.253 8.44977 10.7708 9.53227 10.3648C11.6969 9.5531 14.6907 9.05 18 9.05C21.3093 9.05 24.3031 9.5531 26.4677 10.3648C27.5502 10.7708 28.4228 11.253 29.0238 11.7858C29.6249 12.3188 29.95 12.8981 29.95 13.5Z" stroke="url(#paint9_linear)" stroke-width="0.1"/>
</g>
<g filter="url(#filter5_dd)">
<mask id="path-11-inside-4" fill="white">
<path fill-rule="evenodd" clip-rule="evenodd" d="M28 9.5037L28 11.7147C28 14.3448 22.6274 16.0007 16 16.0007C9.37258 16.0007 4 14.3448 4 11.7147V9.50032V9.33357C4.00345 9.32581 4.00695 9.31806 4.0105 9.31033C4.27598 6.91299 9.54229 5 16 5C22.2158 5 27.3279 6.77238 27.9388 9.04308C27.9608 9.08648 27.9812 9.13039 28 9.17483V9.49693C28 9.49806 28 9.49919 28 9.50032C28 9.50144 28 9.50257 28 9.5037Z"/>
</mask>
<path fill-rule="evenodd" clip-rule="evenodd" d="M28 9.5037L28 11.7147C28 14.3448 22.6274 16.0007 16 16.0007C9.37258 16.0007 4 14.3448 4 11.7147V9.50032V9.33357C4.00345 9.32581 4.00695 9.31806 4.0105 9.31033C4.27598 6.91299 9.54229 5 16 5C22.2158 5 27.3279 6.77238 27.9388 9.04308C27.9608 9.08648 27.9812 9.13039 28 9.17483V9.49693C28 9.49806 28 9.49919 28 9.50032C28 9.50144 28 9.50257 28 9.5037Z" fill="url(#paint10_linear)"/>
<path d="M28 9.5037H27.9H28ZM28 11.7147H28.1H28ZM4 9.33357L3.90863 9.29294L3.9 9.31234V9.33357H4ZM4.0105 9.31033L4.10138 9.35205L4.10812 9.33738L4.10989 9.32134L4.0105 9.31033ZM27.9388 9.04308L27.8423 9.06906L27.8449 9.07905L27.8496 9.08827L27.9388 9.04308ZM28 9.17483H28.1V9.15456L28.0921 9.13589L28 9.17483ZM27.9 9.5037L27.9 11.7147H28.1L28.1 9.5037H27.9ZM27.9 11.7147C27.9 12.3343 27.5845 12.9056 26.9916 13.4183C26.3977 13.9319 25.5322 14.3802 24.4529 14.7494C22.2951 15.4874 19.3069 15.9007 16 15.9007V16.1007C19.3205 16.1007 22.3323 15.6861 24.5176 14.9386C25.6099 14.565 26.5018 14.1062 27.1224 13.5696C27.7439 13.0322 28.1 12.4101 28.1 11.7147H27.9ZM16 15.9007C12.6931 15.9007 9.70487 15.4874 7.54708 14.7494C6.46782 14.3802 5.60231 13.9319 5.00843 13.4183C4.41546 12.9056 4.1 12.3343 4.1 11.7147H3.9C3.9 12.4101 4.25611 13.0322 4.87761 13.5696C5.49819 14.1062 6.39005 14.565 7.48236 14.9386C9.66772 15.6861 12.6795 16.1007 16 16.1007V15.9007ZM4.1 11.7147V9.50032H3.9V11.7147H4.1ZM4.1 9.50032V9.33357H3.9V9.50032H4.1ZM4.09137 9.3742C4.09466 9.3668 4.098 9.35942 4.10138 9.35205L3.91962 9.26861C3.9159 9.2767 3.91224 9.28481 3.90863 9.29294L4.09137 9.3742ZM4.10989 9.32134C4.17229 8.75783 4.53013 8.21033 5.15102 7.70289C5.77126 7.196 6.64498 6.73689 7.71709 6.35023C9.86078 5.57711 12.7798 5.1 16 5.1V4.9C12.7625 4.9 9.8195 5.37939 7.64924 6.16209C6.56437 6.55335 5.66813 7.02199 5.02446 7.54803C4.38145 8.07354 3.98144 8.66416 3.91111 9.29932L4.10989 9.32134ZM16 5.1C19.0994 5.1 21.9201 5.54201 24.039 6.26467C25.0985 6.62606 25.979 7.05643 26.6306 7.53405C27.2832 8.01242 27.6977 8.53183 27.8423 9.06906L28.0354 9.0171C27.8745 8.41898 27.4208 7.86533 26.7489 7.37275C26.0759 6.87941 25.1753 6.44093 24.1035 6.07538C21.9597 5.34418 19.1164 4.9 16 4.9V5.1ZM27.8496 9.08827C27.8706 9.12966 27.89 9.17148 27.9079 9.21376L28.0921 9.13589C28.0724 9.0893 28.051 9.04331 28.028 8.99789L27.8496 9.08827ZM27.9 9.17483V9.49693H28.1V9.17483H27.9ZM27.9 9.49693C27.9 9.49759 27.9 9.49824 27.9 9.49879C27.9 9.49937 27.9 9.49985 27.9 9.50032H28.1C28.1 9.49965 28.1 9.499 28.1 9.49845C28.1 9.49787 28.1 9.49739 28.1 9.49693H27.9ZM27.9 9.50032C27.9 9.50078 27.9 9.50126 27.9 9.50184C27.9 9.50239 27.9 9.50304 27.9 9.5037H28.1C28.1 9.50323 28.1 9.50275 28.1 9.50218C28.1 9.50163 28.1 9.50098 28.1 9.50032H27.9Z" fill="url(#paint11_linear)" mask="url(#path-11-inside-4)"/>
</g>
<g filter="url(#filter6_dd)">
<ellipse cx="16" cy="9.50031" rx="12" ry="4.50032" fill="url(#paint12_linear)"/>
<path d="M27.95 9.50032C27.95 10.1022 27.6249 10.6817 27.0238 11.2146C26.4228 11.7475 25.5502 12.2297 24.4677 12.6357C22.3031 13.4475 19.3093 13.9506 16 13.9506C12.6907 13.9506 9.69692 13.4475 7.53228 12.6357C6.44977 12.2297 5.57722 11.7475 4.97619 11.2146C4.37511 10.6817 4.05 10.1022 4.05 9.50032C4.05 8.89838 4.37511 8.31896 4.97619 7.786C5.57722 7.25309 6.44977 6.7709 7.53228 6.36493C9.69692 5.55313 12.6907 5.05 16 5.05C19.3093 5.05 22.3031 5.55313 24.4677 6.36493C25.5502 6.7709 26.4228 7.25309 27.0238 7.786C27.6249 8.31896 27.95 8.89838 27.95 9.50032Z" stroke="url(#paint13_linear)" stroke-width="0.1"/>
</g>
<g filter="url(#filter7_dd)">
<mask id="path-15-inside-5" fill="white">
<path fill-rule="evenodd" clip-rule="evenodd" d="M29 4.50338L29 6.71429C29 9.34421 23.6274 11 17 11C10.3726 11 5 9.34421 5 6.71429V4.5V4.33333C5.00345 4.32558 5.00694 4.31784 5.01049 4.31012C5.27584 1.91291 10.5422 0 17 0C23.216 0 28.3281 1.77233 28.9389 4.04295C28.9608 4.08632 28.9812 4.1302 29 4.1746V4.49661C29 4.49774 29 4.49887 29 4.5C29 4.50113 29 4.50226 29 4.50338Z"/>
</mask>
<path fill-rule="evenodd" clip-rule="evenodd" d="M29 4.50338L29 6.71429C29 9.34421 23.6274 11 17 11C10.3726 11 5 9.34421 5 6.71429V4.5V4.33333C5.00345 4.32558 5.00694 4.31784 5.01049 4.31012C5.27584 1.91291 10.5422 0 17 0C23.216 0 28.3281 1.77233 28.9389 4.04295C28.9608 4.08632 28.9812 4.1302 29 4.1746V4.49661C29 4.49774 29 4.49887 29 4.5C29 4.50113 29 4.50226 29 4.50338Z" fill="url(#paint14_linear)"/>
<path d="M29 4.50338H28.9H29ZM29 6.71429H29.1H29ZM5 4.33333L4.90863 4.2927L4.9 4.3121V4.33333H5ZM5.01049 4.31012L5.10137 4.35184L5.10811 4.33717L5.10988 4.32112L5.01049 4.31012ZM28.9389 4.04295L28.8423 4.06892L28.845 4.07891L28.8497 4.08814L28.9389 4.04295ZM29 4.1746H29.1V4.15433L29.0921 4.13566L29 4.1746ZM28.9 4.50338L28.9 6.71429H29.1L29.1 4.50338H28.9ZM28.9 6.71429C28.9 7.3339 28.5845 7.90506 27.9916 8.41779C27.3977 8.93131 26.5322 9.37963 25.4529 9.74875C23.2951 10.4867 20.3069 10.9 17 10.9V11.1C20.3205 11.1 23.3323 10.6854 25.5176 9.93799C26.6099 9.56441 27.5018 9.10568 28.1224 8.56907C28.7439 8.03167 29.1 7.40964 29.1 6.71429H28.9ZM17 10.9C13.6931 10.9 10.7049 10.4867 8.54708 9.74875C7.46781 9.37963 6.60231 8.93131 6.00843 8.41779C5.41546 7.90506 5.1 7.3339 5.1 6.71429H4.9C4.9 7.40964 5.25611 8.03167 5.87761 8.56907C6.4982 9.10568 7.39005 9.56441 8.48236 9.93799C10.6677 10.6854 13.6795 11.1 17 11.1V10.9ZM5.1 6.71429V4.5H4.9V6.71429H5.1ZM5.1 4.5V4.33333H4.9V4.5H5.1ZM5.09137 4.37397C5.09466 4.36658 5.09799 4.3592 5.10137 4.35184L4.91961 4.2684C4.9159 4.27648 4.91224 4.28458 4.90863 4.2927L5.09137 4.37397ZM5.10988 4.32112C5.17225 3.75765 5.53007 3.21018 6.15095 2.70277C6.77118 2.1959 7.64489 1.73681 8.71701 1.35017C10.8607 0.577089 13.7798 0.1 17 0.1V-0.1C13.7624 -0.1 10.8194 0.379364 8.64916 1.16203C7.56429 1.55327 6.66804 2.02189 6.02439 2.54791C5.38139 3.07339 4.9814 3.66398 4.9111 4.29912L5.10988 4.32112ZM17 0.1C20.0995 0.1 22.9202 0.541997 25.0391 1.26464C26.0987 1.62602 26.9792 2.05637 27.6308 2.53397C28.2833 3.01233 28.6978 3.53171 28.8423 4.06892L29.0354 4.01697C28.8746 3.41887 28.421 2.86524 27.749 2.37267C27.076 1.87935 26.1755 1.44088 25.1037 1.07535C22.9598 0.34417 20.1165 -0.1 17 -0.1V0.1ZM28.8497 4.08814C28.8706 4.12949 28.89 4.17129 28.9079 4.21354L29.0921 4.13566C29.0724 4.08911 29.0511 4.04314 29.0281 3.99775L28.8497 4.08814ZM28.9 4.1746V4.49661H29.1V4.1746H28.9ZM28.9 4.49661C28.9 4.49727 28.9 4.49792 28.9 4.49847C28.9 4.49905 28.9 4.49953 28.9 4.5H29.1C29.1 4.49934 29.1 4.49869 29.1 4.49814C29.1 4.49756 29.1 4.49708 29.1 4.49661H28.9ZM28.9 4.5C28.9 4.50047 28.9 4.50095 28.9 4.50152C28.9 4.50207 28.9 4.50272 28.9 4.50338H29.1C29.1 4.50292 29.1 4.50244 29.1 4.50186C29.1 4.50131 29.1 4.50066 29.1 4.5H28.9Z" fill="url(#paint15_linear)" mask="url(#path-15-inside-5)"/>
</g>
<g filter="url(#filter8_dd)">
<ellipse cx="17" cy="4.5" rx="12" ry="4.5" fill="url(#paint16_linear)"/>
<path d="M28.95 4.5C28.95 5.10189 28.6249 5.68127 28.0238 6.21419C27.4228 6.74706 26.5502 7.22922 25.4677 7.63516C23.3031 8.44691 20.3093 8.95 17 8.95C13.6907 8.95 10.6969 8.44691 8.53227 7.63516C7.44977 7.22922 6.57722 6.74706 5.97619 6.21419C5.3751 5.68127 5.05 5.10189 5.05 4.5C5.05 3.89811 5.3751 3.31873 5.97619 2.78581C6.57722 2.25294 7.44977 1.77078 8.53227 1.36484C10.6969 0.553095 13.6907 0.05 17 0.05C20.3093 0.05 23.3031 0.553095 25.4677 1.36484C26.5502 1.77078 27.4228 2.25294 28.0238 2.78581C28.6249 3.31873 28.95 3.89811 28.95 4.5Z" stroke="url(#paint17_linear)" stroke-width="0.1"/>
</g>
<g filter="url(#filter9_dd)">
<ellipse cx="26" cy="21.5" rx="12" ry="4.5" fill="url(#paint18_linear)"/>
<path d="M37.95 21.5C37.95 22.1019 37.6249 22.6813 37.0238 23.2142C36.4228 23.7471 35.5502 24.2292 34.4677 24.6352C32.3031 25.4469 29.3093 25.95 26 25.95C22.6907 25.95 19.6969 25.4469 17.5323 24.6352C16.4498 24.2292 15.5772 23.7471 14.9762 23.2142C14.3751 22.6813 14.05 22.1019 14.05 21.5C14.05 20.8981 14.3751 20.3187 14.9762 19.7858C15.5772 19.2529 16.4498 18.7708 17.5323 18.3648C19.6969 17.5531 22.6907 17.05 26 17.05C29.3093 17.05 32.3031 17.5531 34.4677 18.3648C35.5502 18.7708 36.4228 19.2529 37.0238 19.7858C37.6249 20.3187 37.95 20.8981 37.95 21.5Z" stroke="url(#paint19_linear)" stroke-width="0.1"/>
</g>
<g filter="url(#filter10_dd)">
<mask id="path-21-inside-6" fill="white">
<path fill-rule="evenodd" clip-rule="evenodd" d="M44 17.5034L44 19.7143C44 22.3442 38.6274 24 32 24C25.3726 24 20 22.3442 20 19.7143V17.5V17.3333C20.0034 17.3256 20.0069 17.3178 20.0105 17.3101C20.2758 14.9129 25.5422 13 32 13C38.216 13 43.3281 14.7723 43.9389 17.0429C43.9608 17.0863 43.9812 17.1302 44 17.1746V17.4966C44 17.4977 44 17.4989 44 17.5C44 17.5011 44 17.5023 44 17.5034Z"/>
</mask>
<path fill-rule="evenodd" clip-rule="evenodd" d="M44 17.5034L44 19.7143C44 22.3442 38.6274 24 32 24C25.3726 24 20 22.3442 20 19.7143V17.5V17.3333C20.0034 17.3256 20.0069 17.3178 20.0105 17.3101C20.2758 14.9129 25.5422 13 32 13C38.216 13 43.3281 14.7723 43.9389 17.0429C43.9608 17.0863 43.9812 17.1302 44 17.1746V17.4966C44 17.4977 44 17.4989 44 17.5C44 17.5011 44 17.5023 44 17.5034Z" fill="url(#paint20_linear)"/>
<path d="M44 17.5034H43.9H44ZM44 19.7143H44.1H44ZM20 17.3333L19.9086 17.2927L19.9 17.3121V17.3333H20ZM20.0105 17.3101L20.1014 17.3518L20.1081 17.3372L20.1099 17.3211L20.0105 17.3101ZM43.9389 17.0429L43.8423 17.0689L43.845 17.0789L43.8497 17.0881L43.9389 17.0429ZM44 17.1746H44.1V17.1543L44.0921 17.1357L44 17.1746ZM43.9 17.5034L43.9 19.7143H44.1L44.1 17.5034H43.9ZM43.9 19.7143C43.9 20.3339 43.5845 20.9051 42.9916 21.4178C42.3977 21.9313 41.5322 22.3796 40.4529 22.7487C38.2951 23.4867 35.3069 23.9 32 23.9V24.1C35.3205 24.1 38.3323 23.6854 40.5176 22.938C41.6099 22.5644 42.5018 22.1057 43.1224 21.5691C43.7439 21.0317 44.1 20.4096 44.1 19.7143H43.9ZM32 23.9C28.6931 23.9 25.7049 23.4867 23.5471 22.7487C22.4678 22.3796 21.6023 21.9313 21.0084 21.4178C20.4155 20.9051 20.1 20.3339 20.1 19.7143H19.9C19.9 20.4096 20.2561 21.0317 20.8776 21.5691C21.4982 22.1057 22.3901 22.5644 23.4824 22.938C25.6677 23.6854 28.6795 24.1 32 24.1V23.9ZM20.1 19.7143V17.5H19.9V19.7143H20.1ZM20.1 17.5V17.3333H19.9V17.5H20.1ZM20.0914 17.374C20.0947 17.3666 20.098 17.3592 20.1014 17.3518L19.9196 17.2684C19.9159 17.2765 19.9122 17.2846 19.9086 17.2927L20.0914 17.374ZM20.1099 17.3211C20.1723 16.7577 20.5301 16.2102 21.1509 15.7028C21.7712 15.1959 22.6449 14.7368 23.717 14.3502C25.8607 13.5771 28.7798 13.1 32 13.1V12.9C28.7624 12.9 25.8194 13.3794 23.6492 14.162C22.5643 14.5533 21.668 15.0219 21.0244 15.5479C20.3814 16.0734 19.9814 16.664 19.9111 17.2991L20.1099 17.3211ZM32 13.1C35.0995 13.1 37.9202 13.542 40.0391 14.2646C41.0987 14.626 41.9792 15.0564 42.6308 15.534C43.2833 16.0123 43.6978 16.5317 43.8423 17.0689L44.0354 17.017C43.8746 16.4189 43.421 15.8652 42.749 15.3727C42.076 14.8794 41.1755 14.4409 40.1037 14.0753C37.9598 13.3442 35.1165 12.9 32 12.9V13.1ZM43.8497 17.0881C43.8706 17.1295 43.89 17.1713 43.9079 17.2135L44.0921 17.1357C44.0724 17.0891 44.0511 17.0431 44.0281 16.9978L43.8497 17.0881ZM43.9 17.1746V17.4966H44.1V17.1746H43.9ZM43.9 17.4966C43.9 17.4973 43.9 17.4979 43.9 17.4985C43.9 17.4991 43.9 17.4995 43.9 17.5H44.1C44.1 17.4993 44.1 17.4987 44.1 17.4981C44.1 17.4976 44.1 17.4971 44.1 17.4966H43.9ZM43.9 17.5C43.9 17.5005 43.9 17.5009 43.9 17.5015C43.9 17.5021 43.9 17.5027 43.9 17.5034H44.1C44.1 17.5029 44.1 17.5024 44.1 17.5019C44.1 17.5013 44.1 17.5007 44.1 17.5H43.9Z" fill="url(#paint21_linear)" mask="url(#path-21-inside-6)"/>
</g>
<g filter="url(#filter11_dd)">
<ellipse cx="32" cy="17.5" rx="12" ry="4.5" fill="url(#paint22_linear)"/>
<path d="M43.95 17.5C43.95 18.1019 43.6249 18.6813 43.0238 19.2142C42.4228 19.7471 41.5502 20.2292 40.4677 20.6352C38.3031 21.4469 35.3093 21.95 32 21.95C28.6907 21.95 25.6969 21.4469 23.5323 20.6352C22.4498 20.2292 21.5772 19.7471 20.9762 19.2142C20.3751 18.6813 20.05 18.1019 20.05 17.5C20.05 16.8981 20.3751 16.3187 20.9762 15.7858C21.5772 15.2529 22.4498 14.7708 23.5323 14.3648C25.6969 13.5531 28.6907 13.05 32 13.05C35.3093 13.05 38.3031 13.5531 40.4677 14.3648C41.5502 14.7708 42.4228 15.2529 43.0238 15.7858C43.6249 16.3187 43.95 16.8981 43.95 17.5Z" stroke="url(#paint23_linear)" stroke-width="0.1"/>
</g>
<g filter="url(#filter12_dd)">
<mask id="path-25-inside-7" fill="white">
<path fill-rule="evenodd" clip-rule="evenodd" d="M40.5726 4.23534C40.6029 4.22505 40.6336 4.2156 40.6645 4.20698C43.0589 3.54093 46.5519 8.14451 48.4665 14.4894C50.3391 20.6954 50.0079 26.2686 47.7519 27.1329C47.7208 27.1587 47.6891 27.1837 47.6567 27.2079L44.9653 27.9566C42.1782 28.7319 38.8683 24.0662 36.9499 17.7085C35.0315 11.3509 35.2311 5.7089 38.0182 4.93359L40.5414 4.23169C40.5518 4.23284 40.5622 4.23406 40.5726 4.23534Z"/>
</mask>
<path fill-rule="evenodd" clip-rule="evenodd" d="M40.5726 4.23534C40.6029 4.22505 40.6336 4.2156 40.6645 4.20698C43.0589 3.54093 46.5519 8.14451 48.4665 14.4894C50.3391 20.6954 50.0079 26.2686 47.7519 27.1329C47.7208 27.1587 47.6891 27.1837 47.6567 27.2079L44.9653 27.9566C42.1782 28.7319 38.8683 24.0662 36.9499 17.7085C35.0315 11.3509 35.2311 5.7089 38.0182 4.93359L40.5414 4.23169C40.5518 4.23284 40.5622 4.23406 40.5726 4.23534Z" fill="url(#paint24_linear)"/>
<path d="M40.5726 4.23534L40.562 4.33399L40.585 4.33683L40.6068 4.32943L40.5726 4.23534ZM47.7519 27.1329L47.7141 27.0401L47.6989 27.0459L47.6864 27.0563L47.7519 27.1329ZM47.6567 27.2079L47.6856 27.3036L47.7035 27.2986L47.7183 27.2876L47.6567 27.2079ZM44.9653 27.9566L44.9942 28.0523L44.9653 27.9566ZM38.0182 4.93359L38.0471 5.02933L38.0182 4.93359ZM40.5414 4.23169L40.5508 4.13289L40.5313 4.13073L40.5126 4.13595L40.5414 4.23169ZM40.6068 4.32943C40.6354 4.31974 40.6642 4.31084 40.6934 4.30272L40.6356 4.11125C40.6029 4.12036 40.5705 4.13037 40.5384 4.14125L40.6068 4.32943ZM40.6934 4.30272C41.2546 4.14662 41.8915 4.29572 42.5715 4.72393C43.2515 5.15206 43.9637 5.85304 44.6654 6.77779C46.0682 8.62666 47.4154 11.3522 48.3701 14.5162L48.5628 14.4626C47.603 11.2817 46.2464 8.53299 44.8255 6.66037C44.1153 5.72438 43.3857 5.0028 42.6774 4.5568C41.9692 4.11089 41.2717 3.93432 40.6356 4.11125L40.6934 4.30272ZM48.3701 14.5162C49.3039 17.6108 49.6869 20.5438 49.557 22.8068C49.492 23.9386 49.299 24.898 48.986 25.6251C48.6727 26.3529 48.2441 26.8371 47.7141 27.0401L47.7898 27.2257C48.3878 26.9966 48.8466 26.46 49.1713 25.7058C49.4964 24.9509 49.6921 23.967 49.7578 22.8217C49.8894 20.5305 49.5016 17.5739 48.5628 14.4626L48.3701 14.5162ZM47.6864 27.0563C47.6566 27.081 47.6261 27.105 47.5951 27.1282L47.7183 27.2876C47.752 27.2624 47.785 27.2364 47.8174 27.2095L47.6864 27.0563ZM47.6278 27.1122L44.9364 27.8609L44.9942 28.0523L47.6856 27.3036L47.6278 27.1122ZM44.9364 27.8609C44.2726 28.0455 43.5718 27.9088 42.8568 27.4911C42.1404 27.0726 41.415 26.3746 40.7119 25.4487C39.3058 23.5971 38.0033 20.8533 37.0462 17.6817L36.8536 17.7353C37.8149 20.9213 39.1265 23.6893 40.5518 25.5661C41.2643 26.5044 42.0088 27.2248 42.7568 27.6618C43.5063 28.0996 44.2644 28.2553 44.9942 28.0523L44.9364 27.8609ZM37.0462 17.6817C36.0892 14.5101 35.6624 11.5227 35.8199 9.23625C35.8986 8.09279 36.123 7.13058 36.4955 6.40919C36.8672 5.68922 37.3833 5.21397 38.0471 5.02933L37.9893 4.83786C37.2595 5.04087 36.7056 5.5616 36.3159 6.31624C35.9271 7.06946 35.6989 8.06046 35.6192 9.21913C35.4596 11.5369 35.8922 14.5493 36.8536 17.7353L37.0462 17.6817ZM38.0471 5.02933L40.5703 4.32742L40.5126 4.13595L37.9893 4.83786L38.0471 5.02933ZM40.532 4.33048C40.542 4.33159 40.552 4.33276 40.562 4.33399L40.5833 4.13669C40.5725 4.13536 40.5617 4.13409 40.5508 4.13289L40.532 4.33048Z" fill="url(#paint25_linear)" mask="url(#path-25-inside-7)"/>
</g>
<g filter="url(#filter13_dd)">
<ellipse rx="12" ry="4.5" transform="matrix(0.288879 0.957366 -0.963419 0.268 44.1311 15.6944)" fill="url(#paint26_linear)"/>
<path d="M47.5832 27.1349C47.0033 27.2962 46.3512 27.1402 45.6642 26.7076C44.9772 26.275 44.2606 25.5689 43.5568 24.6413C42.1494 22.7865 40.7999 20.0552 39.8439 16.887C38.8879 13.7188 38.5078 10.7178 38.6645 8.4279C38.7429 7.28276 38.9553 6.31819 39.2951 5.59997C39.6349 4.88169 40.0991 4.41517 40.679 4.25387C41.2589 4.09256 41.911 4.24853 42.598 4.68117C43.285 5.11376 44.0016 5.81989 44.7054 6.74745C46.1128 8.60226 47.4623 11.3336 48.4183 14.5018C49.3743 17.67 49.7545 20.671 49.5977 22.9609C49.5194 24.106 49.3069 25.0706 48.9671 25.7888C48.6274 26.5071 48.1631 26.9736 47.5832 27.1349Z" stroke="url(#paint27_linear)" stroke-width="0.1"/>
</g>
<defs>
<filter id="filter0_dd" x="1" y="13" width="32" height="19" filterUnits="userSpaceOnUse" color-interpolation-filters="sRGB">
<feFlood flood-opacity="0" result="BackgroundImageFix"/>
<feColorMatrix in="SourceAlpha" type="matrix" values="0 0 0 0 0 0 0 0 0 0 0 0 0 0 0 0 0 0 127 0" result="hardAlpha"/>
<feOffset dy="4"/>
<feGaussianBlur stdDeviation="2"/>
<feComposite in2="hardAlpha" operator="out"/>
<feColorMatrix type="matrix" values="0 0 0 0 0.4625 0 0 0 0 0.302202 0 0 0 0 0 0 0 0 0.25 0"/>
<feBlend mode="normal" in2="BackgroundImageFix" result="effect1_dropShadow"/>
<feColorMatrix in="SourceAlpha" type="matrix" values="0 0 0 0 0 0 0 0 0 0 0 0 0 0 0 0 0 0 127 0" result="hardAlpha"/>
<feOffset dy="1"/>
<feGaussianBlur stdDeviation="0.5"/>
<feComposite in2="hardAlpha" operator="out"/>
<feColorMatrix type="matrix" values="0 0 0 0 0.808333 0 0 0 0 0.530241 0 0 0 0 0.0168403 0 0 0 0.5 0"/>
<feBlend mode="normal" in2="effect1_dropShadow" result="effect2_dropShadow"/>
<feBlend mode="normal" in="SourceGraphic" in2="effect2_dropShadow" result="shape"/>
</filter>
<filter id="filter1_dd" x="1" y="13" width="32" height="17" filterUnits="userSpaceOnUse" color-interpolation-filters="sRGB">
<feFlood flood-opacity="0" result="BackgroundImageFix"/>
<feColorMatrix in="SourceAlpha" type="matrix" values="0 0 0 0 0 0 0 0 0 0 0 0 0 0 0 0 0 0 127 0" result="hardAlpha"/>
<feOffset dy="4"/>
<feGaussianBlur stdDeviation="2"/>
<feComposite in2="hardAlpha" operator="out"/>
<feColorMatrix type="matrix" values="0 0 0 0 0.4625 0 0 0 0 0.302202 0 0 0 0 0 0 0 0 0.25 0"/>
<feBlend mode="normal" in2="BackgroundImageFix" result="effect1_dropShadow"/>
<feColorMatrix in="SourceAlpha" type="matrix" values="0 0 0 0 0 0 0 0 0 0 0 0 0 0 0 0 0 0 127 0" result="hardAlpha"/>
<feOffset dy="1"/>
<feGaussianBlur stdDeviation="0.5"/>
<feComposite in2="hardAlpha" operator="out"/>
<feColorMatrix type="matrix" values="0 0 0 0 0.808333 0 0 0 0 0.530241 0 0 0 0 0.0168403 0 0 0 0.5 0"/>
<feBlend mode="normal" in2="effect1_dropShadow" result="effect2_dropShadow"/>
<feBlend mode="normal" in="SourceGraphic" in2="effect2_dropShadow" result="shape"/>
</filter>
<filter id="filter2_dd" x="10" y="17" width="32" height="18.9999" filterUnits="userSpaceOnUse" color-interpolation-filters="sRGB">
<feFlood flood-opacity="0" result="BackgroundImageFix"/>
<feColorMatrix in="SourceAlpha" type="matrix" values="0 0 0 0 0 0 0 0 0 0 0 0 0 0 0 0 0 0 127 0" result="hardAlpha"/>
<feOffset dy="4"/>
<feGaussianBlur stdDeviation="2"/>
<feComposite in2="hardAlpha" operator="out"/>
<feColorMatrix type="matrix" values="0 0 0 0 0.4625 0 0 0 0 0.302202 0 0 0 0 0 0 0 0 0.25 0"/>
<feBlend mode="normal" in2="BackgroundImageFix" result="effect1_dropShadow"/>
<feColorMatrix in="SourceAlpha" type="matrix" values="0 0 0 0 0 0 0 0 0 0 0 0 0 0 0 0 0 0 127 0" result="hardAlpha"/>
<feOffset dy="1"/>
<feGaussianBlur stdDeviation="0.5"/>
<feComposite in2="hardAlpha" operator="out"/>
<feColorMatrix type="matrix" values="0 0 0 0 0.808333 0 0 0 0 0.530241 0 0 0 0 0.0168403 0 0 0 0.5 0"/>
<feBlend mode="normal" in2="effect1_dropShadow" result="effect2_dropShadow"/>
<feBlend mode="normal" in="SourceGraphic" in2="effect2_dropShadow" result="shape"/>
</filter>
<filter id="filter3_dd" x="2" y="9" width="32" height="19.0001" filterUnits="userSpaceOnUse" color-interpolation-filters="sRGB">
<feFlood flood-opacity="0" result="BackgroundImageFix"/>
<feColorMatrix in="SourceAlpha" type="matrix" values="0 0 0 0 0 0 0 0 0 0 0 0 0 0 0 0 0 0 127 0" result="hardAlpha"/>
<feOffset dy="4"/>
<feGaussianBlur stdDeviation="2"/>
<feComposite in2="hardAlpha" operator="out"/>
<feColorMatrix type="matrix" values="0 0 0 0 0.4625 0 0 0 0 0.302202 0 0 0 0 0 0 0 0 0.25 0"/>
<feBlend mode="normal" in2="BackgroundImageFix" result="effect1_dropShadow"/>
<feColorMatrix in="SourceAlpha" type="matrix" values="0 0 0 0 0 0 0 0 0 0 0 0 0 0 0 0 0 0 127 0" result="hardAlpha"/>
<feOffset dy="1"/>
<feGaussianBlur stdDeviation="0.5"/>
<feComposite in2="hardAlpha" operator="out"/>
<feColorMatrix type="matrix" values="0 0 0 0 0.808333 0 0 0 0 0.530241 0 0 0 0 0.0168403 0 0 0 0.5 0"/>
<feBlend mode="normal" in2="effect1_dropShadow" result="effect2_dropShadow"/>
<feBlend mode="normal" in="SourceGraphic" in2="effect2_dropShadow" result="shape"/>
</filter>
<filter id="filter4_dd" x="2" y="9" width="32" height="17.0001" filterUnits="userSpaceOnUse" color-interpolation-filters="sRGB">
<feFlood flood-opacity="0" result="BackgroundImageFix"/>
<feColorMatrix in="SourceAlpha" type="matrix" values="0 0 0 0 0 0 0 0 0 0 0 0 0 0 0 0 0 0 127 0" result="hardAlpha"/>
<feOffset dy="4"/>
<feGaussianBlur stdDeviation="2"/>
<feComposite in2="hardAlpha" operator="out"/>
<feColorMatrix type="matrix" values="0 0 0 0 0.4625 0 0 0 0 0.302202 0 0 0 0 0 0 0 0 0.25 0"/>
<feBlend mode="normal" in2="BackgroundImageFix" result="effect1_dropShadow"/>
<feColorMatrix in="SourceAlpha" type="matrix" values="0 0 0 0 0 0 0 0 0 0 0 0 0 0 0 0 0 0 127 0" result="hardAlpha"/>
<feOffset dy="1"/>
<feGaussianBlur stdDeviation="0.5"/>
<feComposite in2="hardAlpha" operator="out"/>
<feColorMatrix type="matrix" values="0 0 0 0 0.808333 0 0 0 0 0.530241 0 0 0 0 0.0168403 0 0 0 0.5 0"/>
<feBlend mode="normal" in2="effect1_dropShadow" result="effect2_dropShadow"/>
<feBlend mode="normal" in="SourceGraphic" in2="effect2_dropShadow" result="shape"/>
</filter>
<filter id="filter5_dd" x="0" y="5" width="32" height="19.0007" filterUnits="userSpaceOnUse" color-interpolation-filters="sRGB">
<feFlood flood-opacity="0" result="BackgroundImageFix"/>
<feColorMatrix in="SourceAlpha" type="matrix" values="0 0 0 0 0 0 0 0 0 0 0 0 0 0 0 0 0 0 127 0" result="hardAlpha"/>
<feOffset dy="4"/>
<feGaussianBlur stdDeviation="2"/>
<feComposite in2="hardAlpha" operator="out"/>
<feColorMatrix type="matrix" values="0 0 0 0 0.4625 0 0 0 0 0.302202 0 0 0 0 0 0 0 0 0.25 0"/>
<feBlend mode="normal" in2="BackgroundImageFix" result="effect1_dropShadow"/>
<feColorMatrix in="SourceAlpha" type="matrix" values="0 0 0 0 0 0 0 0 0 0 0 0 0 0 0 0 0 0 127 0" result="hardAlpha"/>
<feOffset dy="1"/>
<feGaussianBlur stdDeviation="0.5"/>
<feComposite in2="hardAlpha" operator="out"/>
<feColorMatrix type="matrix" values="0 0 0 0 0.808333 0 0 0 0 0.530241 0 0 0 0 0.0168403 0 0 0 0.5 0"/>
<feBlend mode="normal" in2="effect1_dropShadow" result="effect2_dropShadow"/>
<feBlend mode="normal" in="SourceGraphic" in2="effect2_dropShadow" result="shape"/>
</filter>
<filter id="filter6_dd" x="0" y="5" width="32" height="17.0006" filterUnits="userSpaceOnUse" color-interpolation-filters="sRGB">
<feFlood flood-opacity="0" result="BackgroundImageFix"/>
<feColorMatrix in="SourceAlpha" type="matrix" values="0 0 0 0 0 0 0 0 0 0 0 0 0 0 0 0 0 0 127 0" result="hardAlpha"/>
<feOffset dy="4"/>
<feGaussianBlur stdDeviation="2"/>
<feComposite in2="hardAlpha" operator="out"/>
<feColorMatrix type="matrix" values="0 0 0 0 0.4625 0 0 0 0 0.302202 0 0 0 0 0 0 0 0 0.25 0"/>
<feBlend mode="normal" in2="BackgroundImageFix" result="effect1_dropShadow"/>
<feColorMatrix in="SourceAlpha" type="matrix" values="0 0 0 0 0 0 0 0 0 0 0 0 0 0 0 0 0 0 127 0" result="hardAlpha"/>
<feOffset dy="1"/>
<feGaussianBlur stdDeviation="0.5"/>
<feComposite in2="hardAlpha" operator="out"/>
<feColorMatrix type="matrix" values="0 0 0 0 0.808333 0 0 0 0 0.530241 0 0 0 0 0.0168403 0 0 0 0.5 0"/>
<feBlend mode="normal" in2="effect1_dropShadow" result="effect2_dropShadow"/>
<feBlend mode="normal" in="SourceGraphic" in2="effect2_dropShadow" result="shape"/>
</filter>
<filter id="filter7_dd" x="1" y="0" width="32" height="19" filterUnits="userSpaceOnUse" color-interpolation-filters="sRGB">
<feFlood flood-opacity="0" result="BackgroundImageFix"/>
<feColorMatrix in="SourceAlpha" type="matrix" values="0 0 0 0 0 0 0 0 0 0 0 0 0 0 0 0 0 0 127 0" result="hardAlpha"/>
<feOffset dy="4"/>
<feGaussianBlur stdDeviation="2"/>
<feComposite in2="hardAlpha" operator="out"/>
<feColorMatrix type="matrix" values="0 0 0 0 0.4625 0 0 0 0 0.302202 0 0 0 0 0 0 0 0 0.25 0"/>
<feBlend mode="normal" in2="BackgroundImageFix" result="effect1_dropShadow"/>
<feColorMatrix in="SourceAlpha" type="matrix" values="0 0 0 0 0 0 0 0 0 0 0 0 0 0 0 0 0 0 127 0" result="hardAlpha"/>
<feOffset dy="1"/>
<feGaussianBlur stdDeviation="0.5"/>
<feComposite in2="hardAlpha" operator="out"/>
<feColorMatrix type="matrix" values="0 0 0 0 0.808333 0 0 0 0 0.530241 0 0 0 0 0.0168403 0 0 0 0.5 0"/>
<feBlend mode="normal" in2="effect1_dropShadow" result="effect2_dropShadow"/>
<feBlend mode="normal" in="SourceGraphic" in2="effect2_dropShadow" result="shape"/>
</filter>
<filter id="filter8_dd" x="1" y="0" width="32" height="17" filterUnits="userSpaceOnUse" color-interpolation-filters="sRGB">
<feFlood flood-opacity="0" result="BackgroundImageFix"/>
<feColorMatrix in="SourceAlpha" type="matrix" values="0 0 0 0 0 0 0 0 0 0 0 0 0 0 0 0 0 0 127 0" result="hardAlpha"/>
<feOffset dy="4"/>
<feGaussianBlur stdDeviation="2"/>
<feComposite in2="hardAlpha" operator="out"/>
<feColorMatrix type="matrix" values="0 0 0 0 0.4625 0 0 0 0 0.302202 0 0 0 0 0 0 0 0 0.25 0"/>
<feBlend mode="normal" in2="BackgroundImageFix" result="effect1_dropShadow"/>
<feColorMatrix in="SourceAlpha" type="matrix" values="0 0 0 0 0 0 0 0 0 0 0 0 0 0 0 0 0 0 127 0" result="hardAlpha"/>
<feOffset dy="1"/>
<feGaussianBlur stdDeviation="0.5"/>
<feComposite in2="hardAlpha" operator="out"/>
<feColorMatrix type="matrix" values="0 0 0 0 0.808333 0 0 0 0 0.530241 0 0 0 0 0.0168403 0 0 0 0.5 0"/>
<feBlend mode="normal" in2="effect1_dropShadow" result="effect2_dropShadow"/>
<feBlend mode="normal" in="SourceGraphic" in2="effect2_dropShadow" result="shape"/>
</filter>
<filter id="filter9_dd" x="10" y="17" width="32" height="17" filterUnits="userSpaceOnUse" color-interpolation-filters="sRGB">
<feFlood flood-opacity="0" result="BackgroundImageFix"/>
<feColorMatrix in="SourceAlpha" type="matrix" values="0 0 0 0 0 0 0 0 0 0 0 0 0 0 0 0 0 0 127 0" result="hardAlpha"/>
<feOffset dy="4"/>
<feGaussianBlur stdDeviation="2"/>
<feComposite in2="hardAlpha" operator="out"/>
<feColorMatrix type="matrix" values="0 0 0 0 0.4625 0 0 0 0 0.302202 0 0 0 0 0 0 0 0 0.25 0"/>
<feBlend mode="normal" in2="BackgroundImageFix" result="effect1_dropShadow"/>
<feColorMatrix in="SourceAlpha" type="matrix" values="0 0 0 0 0 0 0 0 0 0 0 0 0 0 0 0 0 0 127 0" result="hardAlpha"/>
<feOffset dy="1"/>
<feGaussianBlur stdDeviation="0.5"/>
<feComposite in2="hardAlpha" operator="out"/>
<feColorMatrix type="matrix" values="0 0 0 0 0.808333 0 0 0 0 0.530241 0 0 0 0 0.0168403 0 0 0 0.5 0"/>
<feBlend mode="normal" in2="effect1_dropShadow" result="effect2_dropShadow"/>
<feBlend mode="normal" in="SourceGraphic" in2="effect2_dropShadow" result="shape"/>
</filter>
<filter id="filter10_dd" x="16" y="13" width="32" height="19" filterUnits="userSpaceOnUse" color-interpolation-filters="sRGB">
<feFlood flood-opacity="0" result="BackgroundImageFix"/>
<feColorMatrix in="SourceAlpha" type="matrix" values="0 0 0 0 0 0 0 0 0 0 0 0 0 0 0 0 0 0 127 0" result="hardAlpha"/>
<feOffset dy="4"/>
<feGaussianBlur stdDeviation="2"/>
<feComposite in2="hardAlpha" operator="out"/>
<feColorMatrix type="matrix" values="0 0 0 0 0.4625 0 0 0 0 0.302202 0 0 0 0 0 0 0 0 0.25 0"/>
<feBlend mode="normal" in2="BackgroundImageFix" result="effect1_dropShadow"/>
<feColorMatrix in="SourceAlpha" type="matrix" values="0 0 0 0 0 0 0 0 0 0 0 0 0 0 0 0 0 0 127 0" result="hardAlpha"/>
<feOffset dy="1"/>
<feGaussianBlur stdDeviation="0.5"/>
<feComposite in2="hardAlpha" operator="out"/>
<feColorMatrix type="matrix" values="0 0 0 0 0.808333 0 0 0 0 0.530241 0 0 0 0 0.0168403 0 0 0 0.5 0"/>
<feBlend mode="normal" in2="effect1_dropShadow" result="effect2_dropShadow"/>
<feBlend mode="normal" in="SourceGraphic" in2="effect2_dropShadow" result="shape"/>
</filter>
<filter id="filter11_dd" x="16" y="13" width="32" height="17" filterUnits="userSpaceOnUse" color-interpolation-filters="sRGB">
<feFlood flood-opacity="0" result="BackgroundImageFix"/>
<feColorMatrix in="SourceAlpha" type="matrix" values="0 0 0 0 0 0 0 0 0 0 0 0 0 0 0 0 0 0 127 0" result="hardAlpha"/>
<feOffset dy="4"/>
<feGaussianBlur stdDeviation="2"/>
<feComposite in2="hardAlpha" operator="out"/>
<feColorMatrix type="matrix" values="0 0 0 0 0.4625 0 0 0 0 0.302202 0 0 0 0 0 0 0 0 0.25 0"/>
<feBlend mode="normal" in2="BackgroundImageFix" result="effect1_dropShadow"/>
<feColorMatrix in="SourceAlpha" type="matrix" values="0 0 0 0 0 0 0 0 0 0 0 0 0 0 0 0 0 0 127 0" result="hardAlpha"/>
<feOffset dy="1"/>
<feGaussianBlur stdDeviation="0.5"/>
<feComposite in2="hardAlpha" operator="out"/>
<feColorMatrix type="matrix" values="0 0 0 0 0.808333 0 0 0 0 0.530241 0 0 0 0 0.0168403 0 0 0 0.5 0"/>
<feBlend mode="normal" in2="effect1_dropShadow" result="effect2_dropShadow"/>
<feBlend mode="normal" in="SourceGraphic" in2="effect2_dropShadow" result="shape"/>
</filter>
<filter id="filter12_dd" x="31.6873" y="4.14453" width="21.9949" height="31.8979" filterUnits="userSpaceOnUse" color-interpolation-filters="sRGB">
<feFlood flood-opacity="0" result="BackgroundImageFix"/>
<feColorMatrix in="SourceAlpha" type="matrix" values="0 0 0 0 0 0 0 0 0 0 0 0 0 0 0 0 0 0 127 0" result="hardAlpha"/>
<feOffset dy="4"/>
<feGaussianBlur stdDeviation="2"/>
<feComposite in2="hardAlpha" operator="out"/>
<feColorMatrix type="matrix" values="0 0 0 0 0.4625 0 0 0 0 0.302202 0 0 0 0 0 0 0 0 0.25 0"/>
<feBlend mode="normal" in2="BackgroundImageFix" result="effect1_dropShadow"/>
<feColorMatrix in="SourceAlpha" type="matrix" values="0 0 0 0 0 0 0 0 0 0 0 0 0 0 0 0 0 0 127 0" result="hardAlpha"/>
<feOffset dy="1"/>
<feGaussianBlur stdDeviation="0.5"/>
<feComposite in2="hardAlpha" operator="out"/>
<feColorMatrix type="matrix" values="0 0 0 0 0.808333 0 0 0 0 0.530241 0 0 0 0 0.0168403 0 0 0 0.5 0"/>
<feBlend mode="normal" in2="effect1_dropShadow" result="effect2_dropShadow"/>
<feBlend mode="normal" in="SourceGraphic" in2="effect2_dropShadow" result="shape"/>
</filter>
<filter id="filter13_dd" x="34.58" y="4.14062" width="19.1022" height="31.1049" filterUnits="userSpaceOnUse" color-interpolation-filters="sRGB">
<feFlood flood-opacity="0" result="BackgroundImageFix"/>
<feColorMatrix in="SourceAlpha" type="matrix" values="0 0 0 0 0 0 0 0 0 0 0 0 0 0 0 0 0 0 127 0" result="hardAlpha"/>
<feOffset dy="4"/>
<feGaussianBlur stdDeviation="2"/>
<feComposite in2="hardAlpha" operator="out"/>
<feColorMatrix type="matrix" values="0 0 0 0 0.4625 0 0 0 0 0.302202 0 0 0 0 0 0 0 0 0.25 0"/>
<feBlend mode="normal" in2="BackgroundImageFix" result="effect1_dropShadow"/>
<feColorMatrix in="SourceAlpha" type="matrix" values="0 0 0 0 0 0 0 0 0 0 0 0 0 0 0 0 0 0 127 0" result="hardAlpha"/>
<feOffset dy="1"/>
<feGaussianBlur stdDeviation="0.5"/>
<feComposite in2="hardAlpha" operator="out"/>
<feColorMatrix type="matrix" values="0 0 0 0 0.808333 0 0 0 0 0.530241 0 0 0 0 0.0168403 0 0 0 0.5 0"/>
<feBlend mode="normal" in2="effect1_dropShadow" result="effect2_dropShadow"/>
<feBlend mode="normal" in="SourceGraphic" in2="effect2_dropShadow" result="shape"/>
</filter>
<linearGradient id="paint0_linear" x1="27.6154" y1="20.15" x2="5.92017" y2="19.7626" gradientUnits="userSpaceOnUse">
<stop stop-color="#E7B964"/>
<stop offset="0.421875" stop-color="#FFC960"/>
<stop offset="0.5625" stop-color="#FFCF71"/>
<stop offset="1" stop-color="#E19C1C"/>
</linearGradient>
<linearGradient id="paint1_linear" x1="22.5385" y1="22.35" x2="8.22637" y2="21.9626" gradientUnits="userSpaceOnUse">
<stop stop-color="#E0A536"/>
<stop offset="0.161458" stop-color="#FFE5B3"/>
<stop offset="0.453125" stop-color="#FCDC9F"/>
<stop offset="1" stop-color="#E19500"/>
</linearGradient>
<linearGradient id="paint2_linear" x1="27.6154" y1="18.85" x2="5.92359" y2="18.3766" gradientUnits="userSpaceOnUse">
<stop stop-color="#E7B964"/>
<stop offset="0.421875" stop-color="#FFC960"/>
<stop offset="0.5625" stop-color="#FFCF71"/>
<stop offset="1" stop-color="#E19C1C"/>
</linearGradient>
<linearGradient id="paint3_linear" x1="22.5385" y1="20.65" x2="8.23154" y2="20.1767" gradientUnits="userSpaceOnUse">
<stop stop-color="#E0A536"/>
<stop offset="0.161458" stop-color="#FFE5B3"/>
<stop offset="0.453125" stop-color="#FCDC9F"/>
<stop offset="1" stop-color="#E19500"/>
</linearGradient>
<linearGradient id="paint4_linear" x1="36.6154" y1="24.15" x2="14.9202" y2="23.7626" gradientUnits="userSpaceOnUse">
<stop stop-color="#E7B964"/>
<stop offset="0.421875" stop-color="#FFC960"/>
<stop offset="0.5625" stop-color="#FFCF71"/>
<stop offset="1" stop-color="#E19C1C"/>
</linearGradient>
<linearGradient id="paint5_linear" x1="31.5385" y1="26.3499" x2="17.2264" y2="25.9625" gradientUnits="userSpaceOnUse">
<stop stop-color="#E0A536"/>
<stop offset="0.161458" stop-color="#FFE5B3"/>
<stop offset="0.453125" stop-color="#FCDC9F"/>
<stop offset="1" stop-color="#E19500"/>
</linearGradient>
<linearGradient id="paint6_linear" x1="28.6154" y1="16.1501" x2="6.92017" y2="15.7627" gradientUnits="userSpaceOnUse">
<stop stop-color="#E7B964"/>
<stop offset="0.421875" stop-color="#FFC960"/>
<stop offset="0.5625" stop-color="#FFCF71"/>
<stop offset="1" stop-color="#E19C1C"/>
</linearGradient>
<linearGradient id="paint7_linear" x1="23.5385" y1="18.3501" x2="9.22637" y2="17.9627" gradientUnits="userSpaceOnUse">
<stop stop-color="#E0A536"/>
<stop offset="0.161458" stop-color="#FFE5B3"/>
<stop offset="0.453125" stop-color="#FCDC9F"/>
<stop offset="1" stop-color="#E19500"/>
</linearGradient>
<linearGradient id="paint8_linear" x1="28.6154" y1="14.85" x2="6.92359" y2="14.3767" gradientUnits="userSpaceOnUse">
<stop stop-color="#E7B964"/>
<stop offset="0.421875" stop-color="#FFC960"/>
<stop offset="0.5625" stop-color="#FFCF71"/>
<stop offset="1" stop-color="#E19C1C"/>
</linearGradient>
<linearGradient id="paint9_linear" x1="23.5385" y1="16.65" x2="9.23154" y2="16.1767" gradientUnits="userSpaceOnUse">
<stop stop-color="#E0A536"/>
<stop offset="0.161458" stop-color="#FFE5B3"/>
<stop offset="0.453125" stop-color="#FCDC9F"/>
<stop offset="1" stop-color="#E19500"/>
</linearGradient>
<linearGradient id="paint10_linear" x1="26.6154" y1="12.1505" x2="4.92017" y2="11.7631" gradientUnits="userSpaceOnUse">
<stop stop-color="#E7B964"/>
<stop offset="0.421875" stop-color="#FFC960"/>
<stop offset="0.5625" stop-color="#FFCF71"/>
<stop offset="1" stop-color="#E19C1C"/>
</linearGradient>
<linearGradient id="paint11_linear" x1="21.5385" y1="14.3506" x2="7.22637" y2="13.9632" gradientUnits="userSpaceOnUse">
<stop stop-color="#E0A536"/>
<stop offset="0.161458" stop-color="#FFE5B3"/>
<stop offset="0.453125" stop-color="#FCDC9F"/>
<stop offset="1" stop-color="#E19500"/>
</linearGradient>
<linearGradient id="paint12_linear" x1="26.6154" y1="10.8504" x2="4.92359" y2="10.3771" gradientUnits="userSpaceOnUse">
<stop stop-color="#E7B964"/>
<stop offset="0.421875" stop-color="#FFC960"/>
<stop offset="0.5625" stop-color="#FFCF71"/>
<stop offset="1" stop-color="#E19C1C"/>
</linearGradient>
<linearGradient id="paint13_linear" x1="21.5385" y1="12.6505" x2="7.23154" y2="12.1772" gradientUnits="userSpaceOnUse">
<stop stop-color="#E0A536"/>
<stop offset="0.161458" stop-color="#FFE5B3"/>
<stop offset="0.453125" stop-color="#FCDC9F"/>
<stop offset="1" stop-color="#E19500"/>
</linearGradient>
<linearGradient id="paint14_linear" x1="27.6154" y1="7.15" x2="5.92017" y2="6.76264" gradientUnits="userSpaceOnUse">
<stop stop-color="#E7B964"/>
<stop offset="0.421875" stop-color="#FFC960"/>
<stop offset="0.5625" stop-color="#FFCF71"/>
<stop offset="1" stop-color="#E19C1C"/>
</linearGradient>
<linearGradient id="paint15_linear" x1="22.5385" y1="9.35" x2="8.22637" y2="8.96258" gradientUnits="userSpaceOnUse">
<stop stop-color="#E0A536"/>
<stop offset="0.161458" stop-color="#FFE5B3"/>
<stop offset="0.453125" stop-color="#FCDC9F"/>
<stop offset="1" stop-color="#E19500"/>
</linearGradient>
<linearGradient id="paint16_linear" x1="27.6154" y1="5.85" x2="5.92359" y2="5.37664" gradientUnits="userSpaceOnUse">
<stop stop-color="#E7B964"/>
<stop offset="0.421875" stop-color="#FFC960"/>
<stop offset="0.5625" stop-color="#FFCF71"/>
<stop offset="1" stop-color="#E19C1C"/>
</linearGradient>
<linearGradient id="paint17_linear" x1="22.5385" y1="7.65" x2="8.23154" y2="7.17665" gradientUnits="userSpaceOnUse">
<stop stop-color="#E0A536"/>
<stop offset="0.161458" stop-color="#FFE5B3"/>
<stop offset="0.453125" stop-color="#FCDC9F"/>
<stop offset="1" stop-color="#E19500"/>
</linearGradient>
<linearGradient id="paint18_linear" x1="36.6154" y1="22.85" x2="14.9236" y2="22.3766" gradientUnits="userSpaceOnUse">
<stop stop-color="#E7B964"/>
<stop offset="0.421875" stop-color="#FFC960"/>
<stop offset="0.5625" stop-color="#FFCF71"/>
<stop offset="1" stop-color="#E19C1C"/>
</linearGradient>
<linearGradient id="paint19_linear" x1="31.5385" y1="24.65" x2="17.2315" y2="24.1767" gradientUnits="userSpaceOnUse">
<stop stop-color="#E0A536"/>
<stop offset="0.161458" stop-color="#FFE5B3"/>
<stop offset="0.453125" stop-color="#FCDC9F"/>
<stop offset="1" stop-color="#E19500"/>
</linearGradient>
<linearGradient id="paint20_linear" x1="42.6154" y1="20.15" x2="20.9202" y2="19.7626" gradientUnits="userSpaceOnUse">
<stop stop-color="#E7B964"/>
<stop offset="0.421875" stop-color="#FFC960"/>
<stop offset="0.5625" stop-color="#FFCF71"/>
<stop offset="1" stop-color="#E19C1C"/>
</linearGradient>
<linearGradient id="paint21_linear" x1="37.5385" y1="22.35" x2="23.2264" y2="21.9626" gradientUnits="userSpaceOnUse">
<stop stop-color="#E0A536"/>
<stop offset="0.161458" stop-color="#FFE5B3"/>
<stop offset="0.453125" stop-color="#FCDC9F"/>
<stop offset="1" stop-color="#E19500"/>
</linearGradient>
<linearGradient id="paint22_linear" x1="42.6154" y1="18.85" x2="20.9236" y2="18.3766" gradientUnits="userSpaceOnUse">
<stop stop-color="#E7B964"/>
<stop offset="0.421875" stop-color="#FFC960"/>
<stop offset="0.5625" stop-color="#FFCF71"/>
<stop offset="1" stop-color="#E19C1C"/>
</linearGradient>
<linearGradient id="paint23_linear" x1="37.5385" y1="20.65" x2="23.2315" y2="20.1767" gradientUnits="userSpaceOnUse">
<stop stop-color="#E0A536"/>
<stop offset="0.161458" stop-color="#FFE5B3"/>
<stop offset="0.453125" stop-color="#FCDC9F"/>
<stop offset="1" stop-color="#E19500"/>
</linearGradient>
<linearGradient id="paint24_linear" x1="44.0549" y1="26.7701" x2="38.5764" y2="5.74211" gradientUnits="userSpaceOnUse">
<stop stop-color="#E7B964"/>
<stop offset="0.421875" stop-color="#FFC960"/>
<stop offset="0.5625" stop-color="#FFCF71"/>
<stop offset="1" stop-color="#E19C1C"/>
</linearGradient>
<linearGradient id="paint25_linear" x1="40.2812" y1="22.5408" x2="36.7846" y2="8.63798" gradientUnits="userSpaceOnUse">
<stop stop-color="#E0A536"/>
<stop offset="0.161458" stop-color="#FFE5B3"/>
<stop offset="0.453125" stop-color="#FCDC9F"/>
<stop offset="1" stop-color="#E19500"/>
</linearGradient>
<linearGradient id="paint26_linear" x1="22.6154" y1="5.85" x2="0.923588" y2="5.37664" gradientUnits="userSpaceOnUse">
<stop stop-color="#E7B964"/>
<stop offset="0.421875" stop-color="#FFC960"/>
<stop offset="0.5625" stop-color="#FFCF71"/>
<stop offset="1" stop-color="#E19C1C"/>
</linearGradient>
<linearGradient id="paint27_linear" x1="42.6963" y1="21.8409" x2="39.3208" y2="7.94388" gradientUnits="userSpaceOnUse">
<stop stop-color="#E0A536"/>
<stop offset="0.161458" stop-color="#FFE5B3"/>
<stop offset="0.453125" stop-color="#FCDC9F"/>
<stop offset="1" stop-color="#E19500"/>
</linearGradient>
</defs>
</svg>
