<svg width="24" height="24" viewBox="0 0 24 24" fill="none" xmlns="http://www.w3.org/2000/svg">
<path fill-rule="evenodd" clip-rule="evenodd" d="M19 11V8C19 4.13401 15.866 1 12 1C8.13401 1 5 4.13401 5 8V11C5 14.3 2 15.1 2 17C2 18.7 5.9 20 12 20C18.1 20 22 18.7 22 17C22 15.1 19 14.3 19 11Z" stroke="#89238A" stroke-width="2" stroke-linecap="round" stroke-linejoin="round"/>
<path d="M11.9995 21.9984C10.9885 21.9984 10.0385 21.9644 9.14453 21.8984C9.5357 23.1462 10.6919 23.9954 11.9995 23.9954C13.3072 23.9954 14.4634 23.1462 14.8545 21.8984C13.9605 21.9644 13.0105 21.9984 11.9995 21.9984Z" fill="#89238A"/>
</svg>
