<svg width="29" height="36" viewBox="0 0 29 36" fill="none" xmlns="http://www.w3.org/2000/svg">
<g filter="url(#filter0_d)">
<path d="M12.3499 3.80834C13.0399 3.32335 13.96 3.32335 14.6501 3.80834L22.6094 9.40261C23.1422 9.77712 23.4593 10.3876 23.4593 11.0389V22.9611C23.4593 23.6124 23.1422 24.2229 22.6094 24.5974L14.6501 30.1917C13.9601 30.6766 13.04 30.6766 12.3499 30.1917L4.39064 24.5974C3.85782 24.2229 3.54071 23.6124 3.54071 22.9611V11.0389C3.54071 10.3876 3.85782 9.77712 4.39064 9.40261L12.3499 3.80834Z" fill="url(#paint0_linear)"/>
<path d="M12.3787 3.84924C13.0515 3.37638 13.9485 3.37638 14.6213 3.84924L22.5806 9.44352C23.1001 9.80866 23.4093 10.4039 23.4093 11.0389V22.9611C23.4093 23.5961 23.1001 24.1913 22.5806 24.5565L14.6213 30.1508C13.9485 30.6236 13.0515 30.6236 12.3787 30.1508L4.41939 24.5565C3.89989 24.1913 3.59071 23.5961 3.59071 22.9611V11.0389C3.59071 10.4039 3.89989 9.80866 4.41939 9.44352L12.3787 3.84924Z" stroke="#89238A" stroke-width="0.1"/>
</g>
<path d="M14.6343 26.3556C13.9512 26.826 13.0488 26.826 12.3657 26.3556L7.00449 22.6639C6.4625 22.2907 6.13878 21.6747 6.13878 21.0166L6.13878 12.9809C6.13878 12.3229 6.4625 11.7069 7.00449 11.3337L12.3657 7.64194C13.0488 7.17158 13.9512 7.17158 14.6343 7.64194L19.9955 11.3337C20.5375 11.7069 20.8612 12.3229 20.8612 12.9809L20.8612 21.0167C20.8612 21.6747 20.5375 22.2907 19.9955 22.6639L14.6343 26.3556Z" fill="url(#paint1_linear)"/>
<defs>
<filter id="filter0_d" x="0.54071" y="0.445312" width="27.9186" height="35.1108" filterUnits="userSpaceOnUse" color-interpolation-filters="sRGB">
<feFlood flood-opacity="0" result="BackgroundImageFix"/>
<feColorMatrix in="SourceAlpha" type="matrix" values="0 0 0 0 0 0 0 0 0 0 0 0 0 0 0 0 0 0 127 0" result="hardAlpha"/>
<feOffset dx="1" dy="1"/>
<feGaussianBlur stdDeviation="2"/>
<feComposite in2="hardAlpha" operator="out"/>
<feColorMatrix type="matrix" values="0 0 0 0 0.537255 0 0 0 0 0.137255 0 0 0 0 0.541176 0 0 0 1 0"/>
<feBlend mode="normal" in2="BackgroundImageFix" result="effect1_dropShadow"/>
<feBlend mode="normal" in="SourceGraphic" in2="effect1_dropShadow" result="shape"/>
</filter>
<linearGradient id="paint0_linear" x1="8.27273" y1="6.81818" x2="27.1627" y2="30.0933" gradientUnits="userSpaceOnUse">
<stop stop-color="#89238A"/>
<stop offset="1" stop-color="#CB00CD"/>
</linearGradient>
<linearGradient id="paint1_linear" x1="17.3636" y1="24.3718" x2="3.74501" y2="7.24432" gradientUnits="userSpaceOnUse">
<stop stop-color="#89238A"/>
<stop offset="1" stop-color="#CB00CD"/>
</linearGradient>
</defs>
</svg>
