<svg width="21" height="18" viewBox="0 0 21 18" fill="none" xmlns="http://www.w3.org/2000/svg">
<path fill-rule="evenodd" clip-rule="evenodd" d="M7.75 0.875C7.75 0.529822 8.02982 0.25 8.375 0.25H19.625C19.9702 0.25 20.25 0.529822 20.25 0.875V2.75C20.25 3.09518 19.9702 3.375 19.625 3.375C19.2798 3.375 19 3.09518 19 2.75V1.5H14.625V16.5H15.875C16.2202 16.5 16.5 16.7798 16.5 17.125C16.5 17.4702 16.2202 17.75 15.875 17.75H12.125C11.7798 17.75 11.5 17.4702 11.5 17.125C11.5 16.7798 11.7798 16.5 12.125 16.5H13.375V1.5H9V2.75C9 3.09518 8.72018 3.375 8.375 3.375C8.02982 3.375 7.75 3.09518 7.75 2.75V0.875ZM0.25 6.5C0.25 6.15482 0.529822 5.875 0.875 5.875H8.375C8.72018 5.875 9 6.15482 9 6.5V7.75C9 8.09518 8.72018 8.375 8.375 8.375C8.02982 8.375 7.75 8.09518 7.75 7.75V7.125H5.25V16.5H5.875C6.22018 16.5 6.5 16.7798 6.5 17.125C6.5 17.4702 6.22018 17.75 5.875 17.75H4.625H3.375C3.02982 17.75 2.75 17.4702 2.75 17.125C2.75 16.7798 3.02982 16.5 3.375 16.5H4V7.125H1.5V7.75C1.5 8.09518 1.22018 8.375 0.875 8.375C0.529822 8.375 0.25 8.09518 0.25 7.75V6.5Z" fill="#89238A"/>
</svg>
