<svg width="22" height="22" viewBox="0 0 22 22" fill="#fff700" xmlns="http://www.w3.org/2000/svg">
<path fill-rule="evenodd" clip-rule="evenodd" d="M11.7511 1.96585L14.1897 6.87984C14.3092 7.12682 14.5446 7.29947 14.8184 7.34111L20.2766 8.13187C20.4981 8.16215 20.6982 8.27864 20.8323 8.45542C20.9665 8.6322 21.0236 8.85463 20.991 9.07325C20.9636 9.25295 20.8765 9.41854 20.7434 9.54394L16.7902 13.3848C16.5904 13.574 16.5008 13.8502 16.5521 14.119L17.5046 19.5319C17.5736 19.978 17.2686 20.3965 16.8188 20.4733C16.6333 20.502 16.4433 20.4724 16.2758 20.3886L11.4082 17.8375C11.165 17.7052 10.8702 17.7052 10.6271 17.8375L5.73083 20.4074C5.32005 20.6157 4.81611 20.4609 4.59727 20.0591C4.51195 19.8971 4.48188 19.7122 4.51154 19.5319L5.46411 14.119C5.51019 13.8506 5.42137 13.5767 5.22597 13.3848L1.24422 9.54394C0.918593 9.2177 0.918593 8.69345 1.24422 8.36721C1.37711 8.24562 1.54233 8.16398 1.72051 8.13187L7.17874 7.34111C7.45127 7.29644 7.68532 7.12472 7.80744 6.87984L10.246 1.96585C10.3424 1.7666 10.5161 1.61425 10.7277 1.54335C10.9393 1.47246 11.171 1.48902 11.3701 1.5893C11.5343 1.67162 11.6678 1.80352 11.7511 1.96585Z" stroke="#fff700" stroke-width="2" stroke-linecap="round" stroke-linejoin="round"/>
</svg>
