<svg width="21" height="18" viewBox="0 0 21 18" fill="none" xmlns="http://www.w3.org/2000/svg">
<path fill-rule="evenodd" clip-rule="evenodd" d="M0.875 0.875C0.529822 0.875 0.25 1.15482 0.25 1.5V16.5C0.25 16.8452 0.529822 17.125 0.875 17.125H19.625C19.9702 17.125 20.25 16.8452 20.25 16.5V1.5C20.25 1.15482 19.9702 0.875 19.625 0.875H0.875ZM1.5 15.875V5.875H19V15.875H1.5ZM1.5 4.625H19V2.125H1.5V4.625ZM12.0803 7.98208C12.2085 7.66159 12.0526 7.29786 11.7321 7.16967C11.4116 7.04147 11.0479 7.19735 10.9197 7.51784L8.4197 13.7678C8.29151 14.0883 8.44739 14.4521 8.76788 14.5803C9.08837 14.7085 9.4521 14.5526 9.5803 14.2321L12.0803 7.98208ZM6.97036 8.78653C7.19766 8.52676 7.17134 8.1319 6.91157 7.9046C6.65179 7.6773 6.25694 7.70362 6.02964 7.9634L3.84214 10.4634C3.63595 10.699 3.63595 11.0509 3.84214 11.2865L6.02964 13.7865C6.25694 14.0463 6.65179 14.0726 6.91157 13.8453C7.17134 13.618 7.19766 13.2232 6.97036 12.9634L5.14298 10.875L6.97036 8.78653ZM14.4704 7.9634C14.2431 7.70362 13.8482 7.6773 13.5884 7.9046C13.3287 8.1319 13.3023 8.52676 13.5296 8.78653L15.357 10.875L13.5296 12.9634C13.3023 13.2232 13.3287 13.618 13.5884 13.8453C13.8482 14.0726 14.2431 14.0463 14.4704 13.7865L16.6579 11.2865C16.864 11.0509 16.864 10.699 16.6579 10.4634L14.4704 7.9634Z" fill="#A7A7AB"/>
</svg>
