<svg width="21" height="18" viewBox="0 0 21 18" fill="none" xmlns="http://www.w3.org/2000/svg">
<path fill-rule="evenodd" clip-rule="evenodd" d="M1.29917 1.11167C1.65081 0.760044 2.12772 0.5625 2.625 0.5625H18.875C19.3723 0.5625 19.8492 0.760044 20.2008 1.11167C20.5525 1.46331 20.75 1.94022 20.75 2.4375V4.9375V15.5625C20.75 16.0598 20.5525 16.5367 20.2008 16.8883C19.8492 17.24 19.3723 17.4375 18.875 17.4375H2.625C2.12772 17.4375 1.65081 17.24 1.29917 16.8883C0.947544 16.5367 0.75 16.0598 0.75 15.5625V4.9375V2.4375C0.75 1.94022 0.947544 1.46331 1.29917 1.11167ZM2 4.3125H19.5V2.4375C19.5 2.27174 19.4342 2.11277 19.3169 1.99556C19.1997 1.87835 19.0408 1.8125 18.875 1.8125H2.625C2.45924 1.8125 2.30027 1.87835 2.18306 1.99556C2.06585 2.11277 2 2.27174 2 2.4375V4.3125ZM2 5.5625V15.5625C2 15.7283 2.06585 15.8872 2.18306 16.0044C2.30027 16.1217 2.45924 16.1875 2.625 16.1875H18.875C19.0408 16.1875 19.1997 16.1217 19.3169 16.0044C19.4342 15.8872 19.5 15.7283 19.5 15.5625V5.5625H2ZM7.92142 6.90584C8.10568 6.79197 8.33577 6.78161 8.52951 6.87848L14.7795 10.0035C14.9912 10.1094 15.125 10.3258 15.125 10.5625C15.125 10.7992 14.9912 11.0156 14.7795 11.1215L8.52951 14.2465C8.33577 14.3434 8.10568 14.333 7.92142 14.2192C7.73716 14.1053 7.625 13.9041 7.625 13.6875V7.4375C7.625 7.22089 7.73716 7.01972 7.92142 6.90584ZM8.875 8.44877V12.6762L13.1025 10.5625L8.875 8.44877Z" fill="#89238A"/>
</svg>
