<svg width="13" height="20" viewBox="0 0 13 20" fill="none" xmlns="http://www.w3.org/2000/svg">
<path fill-rule="evenodd" clip-rule="evenodd" d="M4.66973 1.98223C5.13857 1.51339 5.77446 1.25 6.4375 1.25C6.7658 1.25 7.0909 1.31466 7.39421 1.4403C7.69752 1.56594 7.97312 1.75009 8.20527 1.98223C8.43741 2.21438 8.62156 2.48998 8.7472 2.79329C8.87284 3.0966 8.9375 3.42169 8.9375 3.75V10C8.9375 10.3283 8.87284 10.6534 8.7472 10.9567C8.62156 11.26 8.43741 11.5356 8.20527 11.7678C7.97312 11.9999 7.69752 12.1841 7.39421 12.3097C7.0909 12.4353 6.76581 12.5 6.4375 12.5C5.77446 12.5 5.13857 12.2366 4.66973 11.7678C4.20089 11.2989 3.9375 10.663 3.9375 10V3.75C3.9375 3.08696 4.20089 2.45107 4.66973 1.98223ZM6.4375 0C5.44294 0 4.48911 0.395088 3.78585 1.09835C3.08259 1.80161 2.6875 2.75544 2.6875 3.75V10C2.6875 10.9946 3.08259 11.9484 3.78585 12.6516C4.48911 13.3549 5.44294 13.75 6.4375 13.75C6.92996 13.75 7.41759 13.653 7.87256 13.4645C8.32753 13.2761 8.74093 12.9999 9.08915 12.6516C9.43737 12.3034 9.71359 11.89 9.90205 11.4351C10.0905 10.9801 10.1875 10.4925 10.1875 10V3.75C10.1875 3.25754 10.0905 2.76991 9.90205 2.31494C9.71359 1.85997 9.43737 1.44657 9.08915 1.09835C8.74093 0.75013 8.32753 0.473907 7.87256 0.285452C7.41759 0.0969966 6.92996 0 6.4375 0ZM1.4375 6.875C1.4375 6.52982 1.15768 6.25 0.8125 6.25C0.467322 6.25 0.1875 6.52982 0.1875 6.875V10C0.1875 11.6576 0.84598 13.2473 2.01808 14.4194C3.04194 15.4433 4.38444 16.0752 5.8125 16.2187V18.75H3.3125C2.96732 18.75 2.6875 19.0298 2.6875 19.375C2.6875 19.7202 2.96732 20 3.3125 20H9.5625C9.90768 20 10.1875 19.7202 10.1875 19.375C10.1875 19.0298 9.90768 18.75 9.5625 18.75H7.0625V16.2187C8.49056 16.0752 9.83306 15.4433 10.8569 14.4194C12.029 13.2473 12.6875 11.6576 12.6875 10V6.875C12.6875 6.52982 12.4077 6.25 12.0625 6.25C11.7173 6.25 11.4375 6.52982 11.4375 6.875V10C11.4375 11.3261 10.9107 12.5979 9.97303 13.5355C9.03535 14.4732 7.76358 15 6.4375 15C5.11142 15 3.83965 14.4732 2.90197 13.5355C1.96428 12.5979 1.4375 11.3261 1.4375 10V6.875Z" fill="#89238A"/>
</svg>
