<svg width="21" height="22" viewBox="0 0 21 22" fill="none" xmlns="http://www.w3.org/2000/svg">
<path fill-rule="evenodd" clip-rule="evenodd" d="M18.8054 6.62288L18.183 5.54279C17.6564 4.62887 16.4895 4.31359 15.5743 4.83798V4.83798C15.1387 5.09461 14.6189 5.16742 14.1295 5.04035C13.6401 4.91329 13.2214 4.59678 12.9656 4.16064C12.8011 3.88342 12.7127 3.56766 12.7093 3.24531V3.24531C12.7242 2.72849 12.5292 2.22767 12.1688 1.85694C11.8084 1.4862 11.3133 1.27713 10.7963 1.27734H9.54228C9.03575 1.27734 8.55009 1.47918 8.19278 1.83821C7.83547 2.19724 7.63595 2.68386 7.63839 3.19039V3.19039C7.62338 4.23619 6.77126 5.07608 5.72535 5.07597C5.40299 5.07262 5.08724 4.98421 4.81001 4.81968V4.81968C3.89484 4.29528 2.72789 4.61056 2.20132 5.52448L1.53313 6.62288C1.00719 7.53566 1.31818 8.70187 2.22878 9.23158V9.23158C2.82068 9.57331 3.18531 10.2049 3.18531 10.8883C3.18531 11.5718 2.82068 12.2033 2.22878 12.5451V12.5451C1.31934 13.0712 1.00801 14.2346 1.53313 15.1446V15.1446L2.1647 16.2339C2.41143 16.679 2.82538 17.0076 3.31497 17.1467C3.80456 17.2859 4.32942 17.2242 4.7734 16.9753V16.9753C5.20986 16.7206 5.72997 16.6508 6.21812 16.7815C6.70627 16.9121 7.12201 17.2323 7.37294 17.6709C7.53748 17.9482 7.62589 18.2639 7.62924 18.5863V18.5863C7.62924 19.6428 8.48573 20.4993 9.54228 20.4993H10.7963C11.8493 20.4993 12.7043 19.6484 12.7093 18.5954V18.5954C12.7069 18.0873 12.9076 17.5993 13.2669 17.24C13.6262 16.8807 14.1143 16.6799 14.6224 16.6824C14.944 16.691 15.2584 16.779 15.5377 16.9387V16.9387C16.4505 17.4646 17.6167 17.1536 18.1464 16.243V16.243L18.8054 15.1446C19.0605 14.7068 19.1305 14.1853 19 13.6956C18.8694 13.206 18.549 12.7886 18.1098 12.5359V12.5359C17.6705 12.2832 17.3502 11.8658 17.2196 11.3762C17.089 10.8866 17.159 10.3651 17.4141 9.92723C17.58 9.6376 17.8202 9.39747 18.1098 9.23158V9.23158C19.0149 8.70216 19.3252 7.54276 18.8054 6.63203V6.63203V6.62288Z" stroke="#090E11" stroke-width="2" stroke-linecap="round" stroke-linejoin="round"/>
<circle cx="10.1752" cy="10.8901" r="2.63616" stroke="#090E11" stroke-width="2" stroke-linecap="round" stroke-linejoin="round"/>
</svg>
