<svg width="17" height="20" viewBox="0 0 17 20" fill="none" xmlns="http://www.w3.org/2000/svg">
<path fill-rule="evenodd" clip-rule="evenodd" d="M8.7532 0C8.24861 0 7.75953 0.174445 7.36884 0.493778C7.11575 0.70064 6.91403 0.960062 6.77604 1.25157H6.58453C6.29438 1.2355 6.00397 1.28 5.73182 1.38234C5.45266 1.48731 5.19914 1.65071 4.98825 1.86161C4.9834 1.86646 4.97857 1.87133 4.97378 1.87622H1.875C1.54348 1.87622 1.22554 2.00792 0.991117 2.24234C0.756696 2.47676 0.625 2.7947 0.625 3.12622V18.7512C0.625 19.0827 0.756696 19.4007 0.991117 19.6351C1.22554 19.8695 1.54348 20.0012 1.875 20.0012H15.625C15.9565 20.0012 16.2745 19.8695 16.5089 19.6351C16.7433 19.4007 16.875 19.0827 16.875 18.7512V3.12622C16.875 2.7947 16.7433 2.47676 16.5089 2.24234C16.2745 2.00792 15.9565 1.87622 15.625 1.87622H12.5108C12.5096 1.87501 12.5084 1.87381 12.5072 1.8726C12.2991 1.66451 12.05 1.5019 11.7758 1.39509C11.506 1.29004 11.2177 1.24121 10.9285 1.25157H10.7304C10.5924 0.960062 10.3907 0.70064 10.1376 0.493778C9.74687 0.174445 9.2578 0 8.7532 0ZM11.6815 2.82083C11.7001 2.85198 11.7213 2.88137 11.7448 2.90871C11.7745 2.95573 11.7996 3.00559 11.8199 3.05765C11.8639 3.17056 11.8839 3.29139 11.8788 3.41246C11.8784 3.42132 11.8782 3.43019 11.8782 3.43907V3.75157H5.6282V3.43907C5.6282 3.4253 5.62775 3.41154 5.62684 3.39781C5.61891 3.27788 5.63669 3.15764 5.67899 3.04514C5.6928 3.00842 5.70911 2.9728 5.72779 2.93852C5.77404 2.8913 5.81286 2.83677 5.84235 2.77683C5.852 2.76615 5.86193 2.75569 5.87213 2.74549C5.95712 2.6605 6.05928 2.59465 6.17178 2.55235C6.28428 2.51005 6.40452 2.49227 6.52445 2.5002C6.53818 2.50111 6.55194 2.50157 6.5657 2.50157H7.22195C7.51919 2.50157 7.7753 2.29223 7.83445 2.00094C7.87749 1.78901 7.99247 1.59848 8.15991 1.46162C8.32734 1.32476 8.53695 1.25 8.7532 1.25C8.96946 1.25 9.17906 1.32476 9.3465 1.46162C9.51394 1.59848 9.62892 1.78901 9.67195 2.00094C9.7311 2.29223 9.98722 2.50157 10.2845 2.50157H10.9407V1.87657L10.9673 2.501C11.0884 2.49584 11.2092 2.51589 11.3221 2.55987C11.435 2.60385 11.5376 2.6708 11.6233 2.75649C11.6438 2.777 11.6632 2.79848 11.6815 2.82083ZM4.38616 3.12622H1.875L1.875 18.7512H15.625V3.12622H13.1149C13.1276 3.2338 13.1321 3.34245 13.1282 3.45122V3.75122H13.75C14.0952 3.75122 14.375 4.03104 14.375 4.37622V16.8762C14.375 17.2214 14.0952 17.5012 13.75 17.5012H3.75C3.40482 17.5012 3.125 17.2214 3.125 16.8762V4.37622C3.125 4.03104 3.40482 3.75122 3.75 3.75122H4.3782V3.45789C4.37206 3.34703 4.37477 3.23613 4.38616 3.12622ZM4.98222 5.00122H4.375V16.2512H13.125V5.00122H12.5242C12.5172 5.00145 12.5102 5.00157 12.5032 5.00157H5.0032C4.99618 5.00157 4.98918 5.00145 4.98222 5.00122ZM6.875 6.25122C6.52982 6.25122 6.25 6.53104 6.25 6.87622C6.25 7.2214 6.52982 7.50122 6.875 7.50122H10.625C10.9702 7.50122 11.25 7.2214 11.25 6.87622C11.25 6.53104 10.9702 6.25122 10.625 6.25122H6.875ZM6.875 9.37622C6.52982 9.37622 6.25 9.65604 6.25 10.0012C6.25 10.3464 6.52982 10.6262 6.875 10.6262H10.625C10.9702 10.6262 11.25 10.3464 11.25 10.0012C11.25 9.65604 10.9702 9.37622 10.625 9.37622H6.875ZM6.875 12.5012C6.52982 12.5012 6.25 12.781 6.25 13.1262C6.25 13.4714 6.52982 13.7512 6.875 13.7512H10.625C10.9702 13.7512 11.25 13.4714 11.25 13.1262C11.25 12.781 10.9702 12.5012 10.625 12.5012H6.875Z" fill="#A7A7AB"/>
</svg>
