<svg width="136" height="38" viewBox="0 0 136 38" fill="none" xmlns="http://www.w3.org/2000/svg">
<path d="M54.4766 26.8867V13.71H56.4321V15.7686H56.604C56.8786 15.0652 57.3215 14.5179 57.9338 14.1258C58.5456 13.7341 59.2806 13.5381 60.1389 13.5381C61.0077 13.5381 61.7326 13.7341 62.3133 14.1258C62.8935 14.5179 63.347 15.0652 63.6728 15.7686H63.8101C64.1478 15.0884 64.6539 14.5464 65.3289 14.1429C66.0034 13.7398 66.813 13.5381 67.7563 13.5381C68.9343 13.5381 69.8983 13.9056 70.6478 14.6407C71.3969 15.3753 71.7714 16.5177 71.7714 18.068V26.8867H69.747V18.068C69.747 17.0957 69.4808 16.4011 68.9488 15.9831C68.4172 15.566 67.7905 15.3573 67.0704 15.3573C66.1437 15.3573 65.4258 15.6358 64.917 16.1936C64.4079 16.7515 64.1535 17.4562 64.1535 18.3079V26.8867H62.0944V17.8619C62.0944 17.1129 61.8515 16.5081 61.3655 16.0476C60.8792 15.5871 60.2529 15.3573 59.4863 15.3573C58.9605 15.3573 58.4701 15.4972 58.0153 15.777C57.5606 16.0577 57.1944 16.4449 56.9172 16.9396C56.64 17.4348 56.501 18.0049 56.501 18.6513V26.8867H54.4766Z" fill="#373740"/>
<path d="M78.5766 25.1211C79.2857 25.1211 79.8932 24.9807 80.3993 24.7005C80.9058 24.4207 81.2917 24.0527 81.5575 23.5984C81.8233 23.1436 81.9566 22.6559 81.9566 22.1357V20.4367C81.8649 20.5284 81.6891 20.613 81.429 20.6898C81.1685 20.7674 80.8725 20.8328 80.5409 20.8876C80.2094 20.9415 79.8861 20.9907 79.5717 21.0328C79.2568 21.0757 78.9941 21.1117 78.7823 21.1402C78.2849 21.2034 77.8315 21.3091 77.4223 21.4577C77.014 21.6068 76.6877 21.8195 76.4447 22.0967C76.2013 22.3743 76.0798 22.7418 76.0798 23.1993C76.0798 23.8339 76.3145 24.3132 76.7837 24.6364C77.2521 24.9592 77.8499 25.1211 78.5766 25.1211ZM78.0187 27.1797C77.1837 27.1797 76.4289 27.0236 75.754 26.7122C75.079 26.4004 74.5457 25.9473 74.1541 25.3522C73.762 24.7579 73.5664 24.0286 73.5664 23.1651C73.5664 22.4217 73.7094 21.8095 73.9953 21.3292C74.2813 20.849 74.6672 20.4688 75.1536 20.1881C75.6395 19.9078 76.1829 19.696 76.7837 19.5535C77.3837 19.4105 77.9959 19.3017 78.6196 19.2276C79.4085 19.136 80.0488 19.0601 80.5409 19C81.033 18.9399 81.3904 18.8412 81.6132 18.704C81.8364 18.5667 81.9478 18.3435 81.9478 18.0352V17.9751C81.9478 17.2256 81.7378 16.6453 81.3176 16.2331C80.897 15.8213 80.2721 15.6156 79.4432 15.6156C78.5792 15.6156 77.9003 15.8059 77.4052 16.1862C76.9109 16.5664 76.5688 16.9883 76.3802 17.4514L73.9699 16.9023C74.2554 16.102 74.6747 15.4542 75.2264 14.9595C75.7785 14.4648 76.4144 14.1043 77.1355 13.8784C77.8556 13.6526 78.6134 13.5394 79.4085 13.5394C79.9348 13.5394 80.494 13.6013 81.086 13.7241C81.6777 13.8469 82.232 14.0718 82.7504 14.3973C83.2675 14.7236 83.6924 15.188 84.024 15.7915C84.3556 16.3949 84.5213 17.1769 84.5213 18.1378V26.888H82.0167V25.0869H81.9136C81.7478 25.4184 81.4992 25.7443 81.1672 26.0644C80.8352 26.385 80.4093 26.6508 79.8892 26.8622C79.3686 27.074 78.745 27.1797 78.0187 27.1797Z" fill="#373740"/>
<path d="M97.0682 17.193L94.2373 17.5022C94.1575 17.2163 94.0189 16.9474 93.8215 16.6957C93.6242 16.444 93.3593 16.2409 93.0277 16.0865C92.6962 15.9322 92.29 15.855 91.8098 15.855C91.1634 15.855 90.6213 15.9953 90.1841 16.2756C89.7468 16.5554 89.5306 16.9185 89.5363 17.365C89.5306 17.7483 89.6723 18.0601 89.9608 18.2995C90.2498 18.5399 90.7288 18.7372 91.3976 18.892L93.6457 19.3723C94.8925 19.6411 95.8201 20.067 96.4292 20.6507C97.0384 21.2335 97.3458 21.9975 97.3515 22.9409C97.3458 23.7702 97.1042 24.5013 96.627 25.1328C96.149 25.7648 95.4872 26.2578 94.6408 26.6126C93.7943 26.9674 92.8216 27.1445 91.7239 27.1445C90.1108 27.1445 88.8127 26.8055 87.8294 26.1284C86.8453 25.4504 86.2593 24.5052 86.0703 23.2926L89.0986 23.001C89.2363 23.5961 89.528 24.0448 89.9735 24.3478C90.42 24.6508 91.0002 24.8026 91.7151 24.8026C92.4532 24.8026 93.0466 24.6508 93.4957 24.3478C93.9443 24.0448 94.1689 23.6707 94.1689 23.2242C94.1689 22.8466 94.0246 22.5348 93.7356 22.2892C93.4465 22.0431 92.9992 21.8541 92.3931 21.723L90.145 21.2507C88.8815 20.9879 87.9461 20.5432 87.34 19.917C86.7339 19.2907 86.4334 18.4973 86.4396 17.5364C86.4334 16.7242 86.6549 16.0194 87.1044 15.4217C87.5531 14.8244 88.1794 14.3608 88.9828 14.0319C89.7863 13.7034 90.7143 13.5385 91.7668 13.5385C93.311 13.5385 94.5276 13.8674 95.417 14.5253C96.306 15.1831 96.8568 16.0725 97.0682 17.193Z" fill="#373740"/>
<path d="M99.6215 10.5543H103.276V22.8389C103.276 23.1762 103.328 23.438 103.431 23.6239C103.533 23.8099 103.678 23.9401 103.864 24.0143C104.05 24.0888 104.265 24.1257 104.511 24.1257C104.683 24.1257 104.855 24.1103 105.026 24.0783C105.198 24.0476 105.329 24.0226 105.421 24.0055L105.996 26.725C105.813 26.7825 105.555 26.8496 105.223 26.9268C104.892 27.004 104.489 27.0513 104.014 27.0684C103.133 27.1026 102.363 26.9851 101.702 26.7167C101.042 26.4479 100.528 26.0304 100.162 25.4642C99.796 24.898 99.6162 24.1831 99.6215 23.3196V10.5543ZM105.756 16.4565H97.8203V13.7115H105.756V16.4565Z" fill="#373740"/>
<path d="M112.756 27.1367C111.378 27.1367 110.19 26.8635 109.191 26.3175C108.193 25.7715 107.427 24.9908 106.892 23.9755C106.358 22.9607 106.09 21.7525 106.09 20.3508C106.09 18.9899 106.359 17.7988 106.897 16.7782C107.434 15.7568 108.192 14.9621 109.17 14.3929C110.148 13.8241 111.3 13.5394 112.628 13.5394C113.565 13.5394 114.423 13.6855 115.201 13.9771C115.979 14.2688 116.65 14.7008 117.217 15.2726C117.783 15.8441 118.224 16.5493 118.538 17.387C118.853 18.2251 119.01 19.1842 119.01 20.2653V21.3117H107.557V18.8755H115.106C115.101 18.4294 114.995 18.0317 114.789 17.683C114.583 17.3343 114.302 17.0607 113.944 16.8638C113.587 16.6664 113.176 16.5677 112.713 16.5677C112.244 16.5677 111.824 16.6721 111.452 16.8809C111.08 17.0896 110.786 17.3729 110.568 17.7304C110.351 18.0874 110.236 18.4926 110.225 18.9439V21.4235C110.225 21.9612 110.331 22.4314 110.543 22.8344C110.754 23.2379 111.054 23.551 111.443 23.7738C111.832 23.997 112.296 24.1084 112.833 24.1084C113.205 24.1084 113.542 24.0571 113.845 23.9541C114.148 23.851 114.409 23.6997 114.626 23.4997C114.843 23.2993 115.006 23.0532 115.115 22.7616L118.967 22.873C118.806 23.737 118.456 24.4873 117.916 25.1255C117.375 25.7631 116.668 26.2578 115.793 26.6091C114.918 26.9609 113.906 27.1367 112.756 27.1367Z" fill="#373740"/>
<path d="M120.176 26.8867V13.71H124.774V16.2151H124.911C125.152 15.2884 125.533 14.6104 126.057 14.1815C126.58 13.753 127.193 13.5381 127.897 13.5381C128.102 13.5381 128.307 13.5539 128.51 13.5855C128.713 13.617 128.909 13.6613 129.098 13.7188V17.7593C128.863 17.679 128.574 17.619 128.231 17.579C127.888 17.5391 127.594 17.519 127.348 17.519C126.885 17.519 126.469 17.6233 126.099 17.8321C125.731 18.0409 125.44 18.3325 125.228 18.707C125.017 19.082 124.911 19.5206 124.911 20.024V26.8867H120.176Z" fill="#373740"/>
<path d="M15.7615 12.2889C11.0079 12.4577 7.30859 16.5079 7.30859 21.2645V26.1572C7.30859 26.5712 7.64409 26.9062 8.0581 26.9062H24.1034C24.517 26.9062 24.8525 26.5712 24.8525 26.1572V21.0558C24.8525 16.2105 20.9247 12.2836 16.0803 12.2832C15.9742 12.2832 15.8681 12.2853 15.7615 12.2889Z" fill="url(#paint0_linear)"/>
<path d="M25.8644 12.3349L16.0032 26.0655C15.7506 26.4168 16.0015 26.9062 16.4343 26.9062H36.1571C36.5895 26.9062 36.8403 26.4168 36.5882 26.0655L26.7266 12.3349C26.6209 12.1876 26.4582 12.1139 26.2955 12.1139C26.1328 12.1139 25.9701 12.1876 25.8644 12.3349Z" fill="url(#paint1_linear)"/>
<path d="M32.547 15.0075L24.6011 26.0611C24.3476 26.4142 24.5998 26.9058 25.0344 26.9058H36.5845V26.9062C41.0561 26.9062 44.6808 23.2811 44.6808 18.8099C44.6808 18.7476 44.68 18.6858 44.6787 18.624C44.6278 16.3575 43.5292 14.5475 41.9595 13.4169C40.7851 12.5709 39.4281 12.1665 38.0804 12.1665C35.9652 12.1665 33.8733 13.1625 32.547 15.0075Z" fill="url(#paint2_linear)"/>
<defs>
<linearGradient id="paint0_linear" x1="7.30885" y1="19.5948" x2="24.8526" y2="19.5948" gradientUnits="userSpaceOnUse">
<stop stop-color="#C72A83"/>
<stop offset="0.594008" stop-color="#89238A"/>
<stop offset="1" stop-color="#89238A"/>
</linearGradient>
<linearGradient id="paint1_linear" x1="15.9023" y1="19.51" x2="36.6887" y2="19.51" gradientUnits="userSpaceOnUse">
<stop stop-color="#FEA654"/>
<stop offset="0.594008" stop-color="#FE6E4B"/>
<stop offset="1" stop-color="#FE6E4B"/>
</linearGradient>
<linearGradient id="paint2_linear" x1="24.5" y1="19.5363" x2="44.6807" y2="19.5363" gradientUnits="userSpaceOnUse">
<stop stop-color="#02CFF3"/>
<stop offset="0.736963" stop-color="#029DCC"/>
<stop offset="1" stop-color="#029DCC"/>
</linearGradient>
</defs>
</svg>
