<svg width="96" height="59" xmlns="http://www.w3.org/2000/svg" fill="none">
 <defs>
  <linearGradient y2="0.5" x2="1.00002" y1="0.5" x1="0" id="paint0_linear">
   <stop stop-color="#C72A83"/>
   <stop stop-color="#89238A" offset="0.59401"/>
   <stop stop-color="#89238A" offset="1"/>
  </linearGradient>
  <linearGradient y2="0.50001" x2="0.99999" y1="0.50001" x1="0" id="paint1_linear">
   <stop stop-color="#FEA654"/>
   <stop stop-color="#FE6E4B" offset="0.59401"/>
   <stop stop-color="#FE6E4B" offset="1"/>
  </linearGradient>
  <linearGradient y2="0.50001" x2="1" y1="0.50001" x1="0" id="paint2_linear">
   <stop stop-color="#02CFF3"/>
   <stop stop-color="#029DCC" offset="0.73696"/>
   <stop stop-color="#029DCC" offset="1"/>
  </linearGradient>
 </defs>
 <g>
  <title>Layer 1</title>
  <path id="svg_7" fill="url(#paint0_linear)" d="m23.47777,11.3003c-11.7103,0.4159 -20.8215,10.3924 -20.8215,22.1093l0,12.0517c0,1.0198 0.8264,1.8451 1.8451,1.8451l39.5246,0c1.0188,0 1.8441,-0.8253 1.8441,-1.8451l0,-12.567c0,-11.934 -9.674,-21.6069 -21.6069,-21.608c-0.2614,0 -0.5229,0.0054 -0.7854,0.014z"/>
  <path id="svg_8" fill="url(#paint1_linear)" d="m48.36737,11.4149l-24.2914,33.8217c-0.6212,0.8642 -0.0032,2.0698 1.0619,2.0698l48.5818,0c1.0652,0 1.6841,-1.2056 1.063,-2.0698l-24.2925,-33.8217c-0.2604,-0.363 -0.6611,-0.5445 -1.0619,-0.5445c-0.3997,0 -0.8005,0.1815 -1.0609,0.5445z"/>
  <path stroke="null" id="svg_9" fill="url(#paint2_linear)" d="m64.82097,17.9981l-19.5717,27.2277c-0.6244,0.8696 -0.0043,2.0806 1.0674,2.0806l28.4494,0c11.0142,0 19.9432,-8.9297 19.9432,-19.9422c0,-0.1534 -0.001,-0.3056 -0.004,-0.4579c-0.127,-5.583 -2.833,-10.0414 -6.697,-12.8264c-2.894,-2.0839 -6.2365,-3.0799 -9.5562,-3.0799c-5.2103,0 -10.3633,2.4534 -13.6311,6.9981z"/>
 </g>
</svg>