<svg width="335" height="92" viewBox="0 0 335 92" fill="none" xmlns="http://www.w3.org/2000/svg">
<path d="M134.184 66.2344V33.7759H139.001V38.8479H139.424C140.1 37.114 141.191 35.7658 142.698 34.8011C144.207 33.8364 146.017 33.3535 148.13 33.3535C150.271 33.3535 152.057 33.8364 153.487 34.8011C154.917 35.7658 156.034 37.114 156.836 38.8479H157.174C158.005 37.1713 159.253 35.8371 160.914 34.8433C162.577 33.8494 164.57 33.3535 166.895 33.3535C169.796 33.3535 172.171 34.2588 174.016 36.0694C175.862 37.8789 176.784 40.693 176.784 44.5108V66.2344H171.798V44.5108C171.798 42.1169 171.141 40.4046 169.832 39.3762C168.523 38.3477 166.979 37.8335 165.204 37.8335C162.922 37.8335 161.154 38.5206 159.9 39.8936C158.647 41.2678 158.019 43.0038 158.019 45.1028V66.2344H152.948V44.0031C152.948 42.159 152.349 40.6682 151.153 39.535C149.954 38.4007 148.412 37.8335 146.524 37.8335C145.227 37.8335 144.02 38.1792 142.899 38.8684C141.779 39.5587 140.878 40.5137 140.195 41.7323C139.513 42.9509 139.17 44.3563 139.17 45.9487V66.2344H134.184Z" fill="#F2F2F2"/>
<path d="M193.552 61.8812C195.299 61.8812 196.796 61.5365 198.042 60.8462C199.29 60.1559 200.24 59.2506 200.895 58.1304C201.55 57.0101 201.878 55.8099 201.878 54.5276V50.3426C201.652 50.5683 201.22 50.7768 200.578 50.9659C199.937 51.1571 199.208 51.3191 198.391 51.4531C197.575 51.5871 196.778 51.707 196.004 51.8118C195.229 51.9176 194.581 52.0062 194.059 52.0764C192.834 52.2309 191.718 52.4923 190.709 52.8586C189.703 53.2248 188.899 53.7487 188.301 54.4315C187.702 55.1164 187.403 56.0217 187.403 57.1473C187.403 58.7116 187.98 59.8913 189.136 60.6874C190.29 61.4836 191.763 61.8812 193.552 61.8812ZM192.179 66.9531C190.121 66.9531 188.263 66.5685 186.599 65.8015C184.937 65.0334 183.624 63.9175 182.659 62.4516C181.693 60.9867 181.211 59.1912 181.211 57.0631C181.211 55.233 181.563 53.7239 182.269 52.541C182.972 51.358 183.924 50.4214 185.121 49.7311C186.317 49.0397 187.656 48.519 189.136 48.1669C190.614 47.8147 192.122 47.5468 193.658 47.3642C195.601 47.1395 197.179 46.9515 198.391 46.8035C199.603 46.6555 200.483 46.4135 201.032 46.0754C201.582 45.7373 201.856 45.1874 201.856 44.4269V44.2789C201.856 42.4338 201.339 41.0034 200.304 39.988C199.268 38.9747 197.729 38.468 195.687 38.468C193.56 38.468 191.886 38.9369 190.667 39.8724C189.449 40.8101 188.608 41.8493 188.142 42.9901L182.205 41.6376C182.908 39.665 183.941 38.0694 185.3 36.8508C186.66 35.6322 188.226 34.7453 190.002 34.1879C191.776 33.6326 193.644 33.3528 195.601 33.3528C196.898 33.3528 198.274 33.5051 199.734 33.8076C201.191 34.1112 202.557 34.6643 203.833 35.467C205.107 36.2696 206.153 37.4147 206.972 38.9012C207.788 40.3877 208.197 42.3138 208.197 44.6808V66.2347H202.026V61.7969H201.772C201.363 62.6147 200.75 63.4163 199.933 64.2049C199.116 64.9956 198.068 65.6492 196.785 66.171C195.503 66.6917 193.968 66.9531 192.179 66.9531Z" fill="#F2F2F2"/>
<path d="M239.102 42.3543L232.129 43.1159C231.931 42.4116 231.591 41.7483 231.105 41.1282C230.618 40.5092 229.966 40.0079 229.149 39.6287C228.333 39.2485 227.331 39.0583 226.148 39.0583C224.556 39.0583 223.222 39.4029 222.144 40.0932C221.068 40.7836 220.535 41.678 220.549 42.7778C220.535 43.7209 220.884 44.489 221.595 45.0799C222.306 45.6719 223.487 46.158 225.134 46.5393L230.671 47.7212C233.742 48.3845 236.028 49.4334 237.528 50.8702C239.029 52.307 239.785 54.1878 239.8 56.5126C239.785 58.5554 239.191 60.3552 238.014 61.9119C236.837 63.4675 235.208 64.6828 233.123 65.5568C231.037 66.4308 228.642 66.8672 225.937 66.8672C221.964 66.8672 218.767 66.0321 216.344 64.3631C213.921 62.694 212.477 60.366 212.012 57.379L219.471 56.6606C219.809 58.1265 220.529 59.2317 221.626 59.9782C222.725 60.7246 224.155 61.0984 225.916 61.0984C227.734 61.0984 229.195 60.7246 230.302 59.9782C231.407 59.2317 231.96 58.3091 231.96 57.2094C231.96 56.2803 231.605 55.5122 230.893 54.9062C230.181 54.3012 229.079 53.8356 227.586 53.5115L222.049 52.3492C218.936 51.7021 216.632 50.6056 215.138 49.064C213.646 47.5203 212.906 45.5671 212.92 43.2002C212.906 41.1995 213.452 39.4624 214.558 37.9899C215.664 36.5186 217.206 35.3778 219.185 34.5676C221.165 33.7573 223.451 33.3522 226.043 33.3522C229.847 33.3522 232.843 34.1624 235.035 35.7829C237.225 37.4033 238.581 39.5931 239.102 42.3543Z" fill="#F2F2F2"/>
<path d="M245.391 25.9988H254.393V56.2588C254.393 57.0896 254.521 57.7345 254.774 58.1915C255.027 58.6506 255.383 58.9704 255.841 59.154C256.299 59.3377 256.83 59.4284 257.436 59.4284C257.859 59.4284 258.282 59.3906 258.703 59.3117C259.127 59.235 259.451 59.1745 259.677 59.1324L261.092 65.8313C260.64 65.9728 260.006 66.1381 259.19 66.3282C258.374 66.5184 257.38 66.635 256.211 66.6772C254.041 66.7614 252.143 66.4719 250.516 65.8108C248.888 65.1485 247.623 64.119 246.722 62.7255C245.82 61.3297 245.377 59.5688 245.391 57.4417V25.9988ZM260.5 40.5363H240.953V33.7747H260.5V40.5363Z" fill="#F2F2F2"/>
<path d="M277.745 66.8477C274.348 66.8477 271.422 66.1746 268.964 64.8286C266.505 63.4836 264.618 61.5618 263.301 59.0609C261.983 56.56 261.324 53.5838 261.324 50.1323C261.324 46.7791 261.986 43.8461 263.312 41.3312C264.635 38.8163 266.502 36.8588 268.91 35.4566C271.32 34.0554 274.159 33.3532 277.427 33.3532C279.738 33.3532 281.851 33.713 283.766 34.4314C285.683 35.1508 287.338 36.2138 288.732 37.6225C290.127 39.0312 291.212 40.7683 291.987 42.8317C292.761 44.8961 293.149 47.2587 293.149 49.9217V52.4992H264.939V46.4982H283.534C283.52 45.3996 283.258 44.4197 282.752 43.5598C282.245 42.701 281.551 42.028 280.671 41.5429C279.791 41.0557 278.78 40.8126 277.639 40.8126C276.483 40.8126 275.447 41.0708 274.532 41.585C273.616 42.0982 272.891 42.7961 272.355 43.6765C271.82 44.5569 271.538 45.554 271.51 46.6667V52.7747C271.51 54.0981 271.772 55.2572 272.291 56.25C272.813 57.2428 273.552 58.0141 274.511 58.564C275.468 59.1139 276.609 59.3882 277.935 59.3882C278.849 59.3882 279.681 59.2619 280.427 59.008C281.175 58.7541 281.816 58.3814 282.351 57.8877C282.886 57.3951 283.288 56.7891 283.556 56.0707L293.043 56.3451C292.648 58.4732 291.785 60.3205 290.455 61.8924C289.123 63.4631 287.38 64.6817 285.225 65.5481C283.069 66.4145 280.576 66.8477 277.745 66.8477Z" fill="#F2F2F2"/>
<path d="M296.023 66.2344V33.7759H307.35V39.9466H307.69C308.282 37.6639 309.22 35.9949 310.509 34.9383C311.8 33.8818 313.309 33.3535 315.042 33.3535C315.549 33.3535 316.052 33.3924 316.553 33.4691C317.053 33.5469 317.536 33.6571 318.001 33.7976V43.7503C317.423 43.5526 316.711 43.4057 315.866 43.3063C315.021 43.208 314.295 43.1594 313.691 43.1594C312.549 43.1594 311.525 43.4154 310.616 43.9296C309.706 44.4449 308.992 45.1622 308.469 46.0859C307.949 47.0084 307.69 48.0898 307.69 49.33V66.2344H296.023Z" fill="#F2F2F2"/>
<path d="M38.8215 30.2751C27.1112 30.691 18 40.6675 18 52.3844V64.4361C18 65.4559 18.8264 66.2812 19.8451 66.2812H59.3697C60.3885 66.2812 61.2138 65.4559 61.2138 64.4361V51.8691C61.2138 39.9351 51.5398 30.2622 39.6069 30.2611C39.3455 30.2611 39.084 30.2665 38.8215 30.2751Z" fill="url(#paint0_linear)"/>
<path d="M63.7111 30.3897L39.4197 64.2114C38.7985 65.0756 39.4165 66.2812 40.4816 66.2812H89.0634C90.1286 66.2812 90.7475 65.0756 90.1264 64.2114L65.8339 30.3897C65.5735 30.0267 65.1728 29.8452 64.772 29.8452C64.3723 29.8452 63.9715 30.0267 63.7111 30.3897Z" fill="url(#paint1_linear)"/>
<path d="M80.1647 36.9729L60.593 64.2006C59.9686 65.0702 60.5887 66.2812 61.6604 66.2812H90.1098C101.124 66.2812 110.053 57.3515 110.053 46.339C110.053 46.1856 110.052 46.0334 110.049 45.8811C109.922 40.2981 107.216 35.8397 103.352 33.0547C100.458 30.9708 97.1155 29.9748 93.7958 29.9748C88.5855 29.9748 83.4325 32.4282 80.1647 36.9729Z" fill="url(#paint2_linear)"/>
<defs>
<linearGradient id="paint0_linear" x1="18.0002" y1="48.2713" x2="61.2146" y2="48.2713" gradientUnits="userSpaceOnUse">
<stop stop-color="#C72A83"/>
<stop offset="0.594008" stop-color="#89238A"/>
<stop offset="1" stop-color="#89238A"/>
</linearGradient>
<linearGradient id="paint1_linear" x1="39.1717" y1="48.0634" x2="90.3737" y2="48.0634" gradientUnits="userSpaceOnUse">
<stop stop-color="#FEA654"/>
<stop offset="0.594008" stop-color="#FE6E4B"/>
<stop offset="1" stop-color="#FE6E4B"/>
</linearGradient>
<linearGradient id="paint2_linear" x1="60.3435" y1="48.1282" x2="110.053" y2="48.1282" gradientUnits="userSpaceOnUse">
<stop stop-color="#02CFF3"/>
<stop offset="0.736963" stop-color="#029DCC"/>
<stop offset="1" stop-color="#029DCC"/>
</linearGradient>
</defs>
</svg>
