<svg width="130" height="130" viewBox="0 0 130 130" fill="none" xmlns="http://www.w3.org/2000/svg">
<rect x="1" y="1" width="128" height="128" rx="64" fill="#FBFBFB"/>
<rect x="1" y="1" width="128" height="128" rx="64" stroke="#CDCDCE" stroke-width="2" stroke-linecap="round" stroke-dasharray="4"/>
<path fill-rule="evenodd" clip-rule="evenodd" d="M65.0086 47C59.1405 47 54.3835 51.7773 54.3835 57.6703C54.3835 63.5634 59.1405 68.3407 65.0086 68.3407C70.8766 68.3407 75.6336 63.5634 75.6336 57.6703C75.6336 51.7773 70.8766 47 65.0086 47ZM65.0086 49.8954C69.2844 49.8954 72.7506 53.3764 72.7506 57.6704C72.7506 61.9644 69.2844 65.4454 65.0086 65.4454C60.7328 65.4454 57.2666 61.9644 57.2666 57.6704C57.2666 53.3764 60.7328 49.8954 65.0086 49.8954ZM60.6601 72.6418C59.1047 72.7497 57.5324 72.9718 55.9816 73.3041C52.9884 73.9207 50.5937 75.1526 49.5745 77.1997C49.1901 78.0003 48.9968 78.8576 49 79.7254C48.9989 80.587 49.1906 81.4453 49.5612 82.2305C50.5399 84.2541 52.6556 85.3993 55.5125 86.0341L56.0243 86.1409C57.533 86.4813 59.1057 86.7105 60.6889 86.8181C60.8238 86.8576 61.1452 86.8943 61.4959 86.9123L61.7844 86.9231C61.9328 86.9265 62.1012 86.9274 62.352 86.9274C64.6277 87.0526 66.9868 87.0161 69.335 86.8162C70.5864 86.7306 71.8462 86.5669 73.0955 86.3272L74.0301 86.1331C77.1151 85.5245 79.4251 84.3672 80.4372 82.2328C81.1875 80.6482 81.1875 78.8094 80.4375 77.2255C79.428 75.0965 77.1474 73.9488 74.0067 73.3018C72.7745 73.0387 71.5224 72.8441 70.2613 72.7198L69.3394 72.6418C66.4519 72.387 63.5476 72.387 60.6601 72.6418ZM69.0871 75.5259L69.1125 75.5279C70.5598 75.6298 71.9982 75.833 73.4174 76.1359C75.7502 76.6165 77.3334 77.4132 77.8342 78.4695C78.2113 79.266 78.2113 80.1915 77.8339 80.9887C77.3659 81.9757 75.944 82.7382 73.889 83.2042L73.439 83.2995C71.992 83.6223 70.5583 83.8304 69.1151 83.9293C66.8759 84.1198 64.6499 84.1542 62.4295 84.0341L61.6423 84.0206C61.4238 84.0094 61.2396 83.9884 61.069 83.9541C59.7175 83.8521 58.5013 83.6907 57.3205 83.4566L56.6155 83.3074C54.2754 82.8487 52.6783 82.0485 52.1605 80.9779C51.9793 80.5939 51.8825 80.1605 51.8831 79.7218C51.8815 79.2856 51.977 78.862 52.1624 78.4757C52.6659 77.4647 54.3584 76.594 56.5721 76.138C58.0015 75.8317 59.4392 75.6287 60.8859 75.528C63.6321 75.286 66.3675 75.286 69.0871 75.5259Z" fill="#CDCDCE"/>
</svg>
